<svg width="531" height="463.00000000000006" xmlns="http://www.w3.org/2000/svg" xmlns:xlink="http://www.w3.org/1999/xlink">
 <style>
  <![CDATA[.B{fill:#f9cca7}.C{fill:#7993cd}.D{color-interpolation-filters:sRGB}]]>
 </style>
 <defs>
  <filter class="D" filterUnits="userSpaceOnUse" height="57" width="78" y="379" x="419" id="A">
   <feGaussianBlur stdDeviation="3"/>
  </filter>
  <filter class="D" filterUnits="userSpaceOnUse" height="74.659" width="83" y="388" x="49" id="B">
   <feGaussianBlur stdDeviation="2"/>
  </filter>
  <path d="m425.022,399.115c30.8,4.18 49.05,0.68 55.56,-14.115c0.678,7.022 4.237,15.553 10.418,26.3c-6.324,16.956 -25.403,20.985 -56.95,17.6c-6.18,-11.47 -9.348,-21.297 -9.027,-29.784l-0.001,-0.001z" id="Ar"/>
  <path d="m209.375,299.34c4.526,-1.043 4.174,-6.97 3.593,-8.887l-1.258,-0.28l-0.652,-0.176c1.773,7.818 -8.523,9.48 -15.644,0.587c-0.515,0.417 -1.148,0.815 -1.917,1.187c-0.11,0.058 -0.222,0.1 -0.34,0.17c4.42,5.908 11.098,8.58 16.217,7.4l0.001,-0.001z" id="As"/>
  <radialGradient xlink:href="#At" gradientTransform="translate(228.001 368.999) scale(220.954 34.0075)" r="1" cy="0" cx="0" id="C">
   <stop stop-color="#193c8a"/>
   <stop stop-color="#647cb1" offset="0.261"/>
   <stop stop-opacity="0" stop-color="#a6b4d2" offset="1"/>
  </radialGradient>
  <radialGradient xlink:href="#At" gradientTransform="translate(418.5 371.999) scale(107.478 21.0046)" r="1" cy="0" cx="0" id="D">
   <stop stop-color="#193c8a"/>
   <stop stop-color="#647cb1" offset="0.261"/>
   <stop stop-opacity="0" stop-color="#a6b4d2" offset="1"/>
  </radialGradient>
  <radialGradient xlink:href="#At" gradientTransform="translate(372.5 385.499) scale(103.479 18.5041)" r="1" cy="0" cx="0" id="E">
   <stop stop-color="#193c8a"/>
   <stop stop-color="#647cb1" offset="0.261"/>
   <stop stop-opacity="0" stop-color="#a6b4d2" offset="1"/>
  </radialGradient>
  <linearGradient xlink:href="#At" y2="343.261" x2="257.667" y1="161.098" x1="288.025" id="F">
   <stop stop-color="#dbdbdb"/>
   <stop stop-color="#fcfcfc" offset="1"/>
  </linearGradient>
  <linearGradient xlink:href="#At" y2="360.248" x2="200.175" y1="352.851" x1="200.175" id="G">
   <stop stop-color="#7c98d8"/>
   <stop stop-color="#0e2a77" offset="1"/>
  </linearGradient>
  <linearGradient xlink:href="#At" y2="356.919" x2="180.521" y1="351.742" x1="180.521" id="H">
   <stop stop-color="#7c98d8"/>
   <stop stop-color="#0e2a77" offset="1"/>
  </linearGradient>
  <linearGradient xlink:href="#At" y2="352.192" x2="200.175" y1="372.945" x1="200.175" id="I">
   <stop stop-color="#d4e0fc"/>
   <stop stop-color="#7c98d8" offset="1"/>
  </linearGradient>
  <linearGradient xlink:href="#At" y2="248.946" x2="147.057" y1="248.946" x1="112.71" id="J">
   <stop stop-color="#d4e0fc"/>
   <stop stop-color="#7c98d8" offset="1"/>
  </linearGradient>
  <linearGradient xlink:href="#At" y2="151.581" x2="286.506" y1="155.897" x1="290.821" id="K">
   <stop stop-color="#7c98d8"/>
   <stop stop-color="#0e2a77" offset="1"/>
  </linearGradient>
  <linearGradient xlink:href="#At" y2="153.87" x2="284.237" y1="153.87" x1="289.293" id="L">
   <stop stop-color="#7c98d8"/>
   <stop stop-color="#0e2a77" offset="1"/>
  </linearGradient>
  <linearGradient xlink:href="#At" y2="363.26" x2="200.175" y1="338.819" x1="200.175" id="M">
   <stop stop-color="#d4e0fc"/>
   <stop stop-color="#7c98d8" offset="1"/>
  </linearGradient>
  <linearGradient xlink:href="#At" y2="336.597" x2="374.633" y1="391.241" x1="374.633" id="N">
   <stop stop-color="#7c98d8"/>
   <stop stop-color="#0e2a77" offset="1"/>
  </linearGradient>
  <linearGradient xlink:href="#At" y2="378.451" x2="380.609" y1="352.099" x1="380.609" id="O">
   <stop stop-color="#7c98d8"/>
   <stop stop-color="#0e2a77" offset="1"/>
  </linearGradient>
  <linearGradient xlink:href="#At" y2="359.6" x2="398.992" y1="143.748" x1="446.034" id="P">
   <stop stop-color="#d4e0fc"/>
   <stop stop-color="#7c98d8" offset="1"/>
  </linearGradient>
  <linearGradient xlink:href="#At" y2="146.073" x2="301.95" y1="348.06" x1="244.139" id="Q">
   <stop stop-color="#d4e0fc"/>
   <stop stop-color="#7c98d8" offset="1"/>
  </linearGradient>
  <linearGradient xlink:href="#At" y2="165.825" x2="218.964" y1="163.222" x1="215.528" id="R">
   <stop stop-color="#dbdbdb"/>
   <stop stop-color="#fcfcfc" offset="1"/>
  </linearGradient>
  <linearGradient xlink:href="#At" y2="100.677" x2="418.52" y1="100.677" x1="366.737" id="S">
   <stop stop-color="#eaeaea"/>
   <stop stop-color="#fff" offset="1"/>
  </linearGradient>
  <linearGradient xlink:href="#At" y2="126.964" x2="449.704" y1="119.385" x1="406.72" id="T">
   <stop stop-color="#eaeaea"/>
   <stop stop-color="#fff" offset="1"/>
  </linearGradient>
  <linearGradient xlink:href="#At" y2="129.879" x2="252.666" y1="333.705" x1="252.666" id="U">
   <stop stop-color="#e2e7f3"/>
   <stop stop-color="#fefefe" offset="1"/>
  </linearGradient>
  <linearGradient xlink:href="#At" y2="165.263" x2="290.886" y1="17.243" x1="317.134" id="V">
   <stop stop-color="#c9d3ea"/>
   <stop stop-color="#fff" offset="1"/>
  </linearGradient>
  <linearGradient xlink:href="#At" y2="191.138" x2="439.834" y1="390.187" x1="158.6" id="W">
   <stop stop-color="#eaeaea"/>
   <stop stop-color="#fff" offset="1"/>
  </linearGradient>
  <linearGradient xlink:href="#At" y2="227.736" x2="230.25" y1="167.36" x1="243.817" id="X">
   <stop stop-color="#cddcff"/>
   <stop stop-color="#fdfdfd" offset="1"/>
  </linearGradient>
  <linearGradient xlink:href="#At" y2="254.518" x2="271.635" y1="254.518" x1="254.486" id="Y">
   <stop stop-color="#6d6464"/>
   <stop stop-color="#3b3b3b" offset="1"/>
  </linearGradient>
  <linearGradient xlink:href="#At" y2="253.512" x2="468" y1="204.102" x1="462.737" id="Z">
   <stop stop-color="#ffebc2"/>
   <stop stop-color="#faca5c" offset="1"/>
  </linearGradient>
  <linearGradient xlink:href="#At" y2="248.462" x2="484.686" y1="204.698" x1="477.778" id="a">
   <stop stop-color="#fadcf9"/>
   <stop stop-color="#e469ab" offset="1"/>
  </linearGradient>
  <radialGradient xlink:href="#At" gradientTransform="translate(456.533 410.19) rotate(-16.5943) scale(43.1756 43.2317)" r="1" cy="0" cx="0" id="b">
   <stop stop-color="#bfc8e0"/>
   <stop stop-opacity="0" stop-color="#e9f0ff" offset="1"/>
  </radialGradient>
  <linearGradient xlink:href="#At" y2="397.931" x2="497.932" y1="422.521" x1="415.156" id="c">
   <stop stop-color="#f9f9f9"/>
   <stop stop-color="#e9f0ff" offset="1"/>
  </linearGradient>
  <radialGradient xlink:href="#At" gradientTransform="translate(93 416.577) rotate(90) scale(36.0462 40.6154)" r="1" cy="0" cx="0" id="d">
   <stop stop-color="#405ca3"/>
   <stop stop-opacity="0" stop-color="#405ca3" offset="1"/>
  </radialGradient>
  <linearGradient xlink:href="#At" y2="400.148" x2="95.707" y1="365.842" x1="47.911" id="e">
   <stop stop-color="#fff"/>
   <stop stop-color="#ecf1fe" offset="1"/>
  </linearGradient>
  <linearGradient xlink:href="#At" y2="67.323" x2="331.883" y1="84.924" x1="245.619" id="f">
   <stop stop-color="#f9f9f9"/>
   <stop stop-color="#e9f0ff" offset="1"/>
  </linearGradient>
  <linearGradient xlink:href="#At" y2="84.726" x2="157.15" y1="27.826" x1="157.15" id="g">
   <stop stop-color="#e9f6fe"/>
   <stop stop-color="#87c9f2" offset="1"/>
  </linearGradient>
  <linearGradient xlink:href="#At" y2="-8.332" x2="240.879" y1="56.859" x1="240.879" id="h">
   <stop stop-color="#ff775c"/>
   <stop stop-color="#ffd3ca" offset="1"/>
  </linearGradient>
  <linearGradient xlink:href="#At" y2="258.536" x2="404.624" y1="260.74" x1="411.237" id="i">
   <stop stop-color="#d4e0fc"/>
   <stop stop-color="#7c98d8" offset="1"/>
  </linearGradient>
  <linearGradient xlink:href="#At" y2="250.379" x2="391.108" y1="208.058" x1="399.043" id="j">
   <stop stop-color="#d4e0fc"/>
   <stop stop-color="#7c98d8" offset="1"/>
  </linearGradient>
  <linearGradient xlink:href="#At" y2="214.999" x2="406.128" y1="194.908" x1="403.141" id="k">
   <stop stop-color="#a36a72"/>
   <stop stop-color="#683e42" offset="1"/>
  </linearGradient>
  <linearGradient xlink:href="#At" y2="219.363" x2="403.824" y1="196.362" x1="409.999" id="l">
   <stop stop-color="#a36a72"/>
   <stop stop-color="#683e42" offset="1"/>
  </linearGradient>
  <linearGradient xlink:href="#At" y2="355.102" x2="423.111" y1="353.471" x1="420.719" id="m">
   <stop stop-color="#eab788"/>
   <stop stop-color="#f9cca7" offset="1"/>
  </linearGradient>
  <linearGradient xlink:href="#At" y2="355.093" x2="346.519" y1="351.903" x1="348.078" id="n">
   <stop stop-color="#eab788"/>
   <stop stop-color="#f9cca7" offset="1"/>
  </linearGradient>
  <linearGradient xlink:href="#At" y2="204.54" x2="396.486" y1="203.018" x1="396.776" id="o">
   <stop stop-color="#eab788"/>
   <stop stop-color="#f9cca7" offset="1"/>
  </linearGradient>
  <linearGradient xlink:href="#At" y2="221.49" x2="405.404" y1="218.529" x1="407.311" id="p">
   <stop stop-color="#eab788"/>
   <stop stop-color="#f9cca7" offset="1"/>
  </linearGradient>
  <linearGradient xlink:href="#At" y2="224.999" x2="397.979" y1="221.519" x1="397.037" id="q">
   <stop stop-color="#eab788"/>
   <stop stop-color="#f9cca7" offset="1"/>
  </linearGradient>
  <linearGradient xlink:href="#At" y2="365.557" x2="351.462" y1="365.557" x1="324.145" id="r">
   <stop stop-color="#6d6464"/>
   <stop offset="1"/>
  </linearGradient>
  <linearGradient xlink:href="#At" y2="367.945" x2="433.343" y1="367.945" x1="418.911" id="s">
   <stop stop-color="#6d6464"/>
   <stop offset="1"/>
  </linearGradient>
  <linearGradient xlink:href="#At" y2="284.757" x2="382.527" y1="353.433" x1="423.062" id="t">
   <stop stop-color="#7c98d8"/>
   <stop stop-color="#0e2a77" offset="1"/>
  </linearGradient>
  <linearGradient xlink:href="#At" y2="254.487" x2="400.661" y1="362.268" x1="346.774" id="u">
   <stop stop-color="#7c98d8"/>
   <stop stop-color="#0e2a77" offset="1"/>
  </linearGradient>
  <linearGradient xlink:href="#At" y2="223.242" x2="111.419" y1="90.525" x1="113.182" id="v">
   <stop stop-color="#b1b1b2"/>
   <stop stop-color="#4b4e51" offset="1"/>
  </linearGradient>
  <linearGradient xlink:href="#At" y2="224.38" x2="144.014" y1="218.813" x1="140.983" id="w">
   <stop stop-color="#eab788"/>
   <stop stop-color="#f9cca7" offset="1"/>
  </linearGradient>
  <linearGradient xlink:href="#At" y2="229.699" x2="101.99" y1="222.588" x1="103.699" id="x">
   <stop stop-color="#eab788"/>
   <stop stop-color="#f9cca7" offset="1"/>
  </linearGradient>
  <linearGradient xlink:href="#At" y2="188.012" x2="66.287" y1="185.256" x1="74.995" id="y">
   <stop stop-color="#eab788"/>
   <stop stop-color="#f9cca7" offset="1"/>
  </linearGradient>
  <linearGradient xlink:href="#At" y2="147.619" x2="112.066" y1="143.436" x1="111.601" id="z">
   <stop stop-color="#eab788"/>
   <stop stop-color="#f9cca7" offset="1"/>
  </linearGradient>
  <linearGradient xlink:href="#At" y2="146.283" x2="117.317" y1="143.229" x1="117.882" id="AA">
   <stop stop-color="#eab788"/>
   <stop stop-color="#f9cca7" offset="1"/>
  </linearGradient>
  <linearGradient xlink:href="#At" y2="146.209" x2="156.098" y1="146.209" x1="149.79" id="AB">
   <stop stop-color="#eab788"/>
   <stop stop-color="#f9cca7" offset="1"/>
  </linearGradient>
  <linearGradient xlink:href="#At" y2="137.834" x2="154.449" y1="136.015" x1="156.819" id="AC">
   <stop stop-color="#eab788"/>
   <stop stop-color="#f9cca7" offset="1"/>
  </linearGradient>
  <linearGradient xlink:href="#At" y2="278.472" x2="182.101" y1="278.472" x1="157.422" id="AD">
   <stop stop-color="#b79292"/>
   <stop stop-color="#916b6b" offset="1"/>
  </linearGradient>
  <linearGradient xlink:href="#At" y2="249.062" x2="58.576" y1="249.062" x1="39.636" id="AE">
   <stop stop-color="#b79292"/>
   <stop stop-color="#916b6b" offset="1"/>
  </linearGradient>
  <linearGradient xlink:href="#At" y2="148.653" x2="90.069" y1="117.292" x1="86.942" id="AF">
   <stop stop-color="#a36a72"/>
   <stop stop-color="#683e42" offset="1"/>
  </linearGradient>
  <linearGradient xlink:href="#At" y2="151.643" x2="85.899" y1="131.84" x1="84.531" id="AG">
   <stop stop-color="#a36a72"/>
   <stop stop-color="#895d61" offset="1"/>
  </linearGradient>
  <linearGradient xlink:href="#At" y2="162.627" x2="128.702" y1="159.379" x1="131.3" id="AH">
   <stop stop-color="#d4e0fc"/>
   <stop stop-color="#6182c6" offset="1"/>
  </linearGradient>
  <linearGradient xlink:href="#At" y2="124.763" x2="155.319" y1="131.591" x1="155.018" id="AI">
   <stop stop-color="#d4e0fc"/>
   <stop stop-color="#1b3e8c" offset="1"/>
  </linearGradient>
  <linearGradient xlink:href="#At" y2="125.483" x2="155.431" y1="130.996" x1="154.612" id="AJ">
   <stop stop-color="#d4e0fc"/>
   <stop stop-color="#1b3e8c" offset="1"/>
  </linearGradient>
  <linearGradient xlink:href="#At" y2="141.309" x2="158.914" y1="126.881" x1="155.412" id="AK">
   <stop stop-color="#b1b1b2"/>
   <stop stop-color="#dbdbdb" offset="1"/>
  </linearGradient>
  <linearGradient xlink:href="#At" y2="120.372" x2="148.041" y1="128.512" x1="147.939" id="AL">
   <stop stop-color="#faca5c"/>
   <stop stop-color="#f93e12" offset="1"/>
  </linearGradient>
  <linearGradient xlink:href="#At" y2="119.713" x2="154.272" y1="122.397" x1="143.216" id="AM">
   <stop stop-color="#faca5c"/>
   <stop stop-color="#f93e12" offset="1"/>
  </linearGradient>
  <linearGradient xlink:href="#At" y2="118.869" x2="165.855" y1="115.177" x1="174.187" id="AN">
   <stop stop-color="#faca5c"/>
   <stop stop-color="#f93e12" offset="1"/>
  </linearGradient>
  <linearGradient xlink:href="#At" y2="119.415" x2="167.453" y1="113.725" x1="174.619" id="AO">
   <stop stop-color="#faca5c"/>
   <stop stop-color="#f93e12" offset="1"/>
  </linearGradient>
  <linearGradient xlink:href="#At" y2="123.864" x2="170.945" y1="121.55" x1="180.475" id="AP">
   <stop stop-color="#d4e0fc"/>
   <stop stop-color="#1b3e8c" offset="1"/>
  </linearGradient>
  <linearGradient xlink:href="#At" y2="109.787" x2="167.529" y1="107.475" x1="177.057" id="AQ">
   <stop stop-color="#d4e0fc"/>
   <stop stop-color="#1b3e8c" offset="1"/>
  </linearGradient>
  <linearGradient xlink:href="#At" y2="100.237" x2="153.554" y1="123.662" x1="160.786" id="AR">
   <stop stop-color="#dbdbdb"/>
   <stop stop-color="#fcfcfc" offset="1"/>
  </linearGradient>
  <linearGradient xlink:href="#At" y2="116.899" x2="161.714" y1="125.363" x1="161.411" id="AS">
   <stop stop-color="#dbdbdb"/>
   <stop stop-color="#fcfcfc" offset="1"/>
  </linearGradient>
  <linearGradient xlink:href="#At" y2="136.398" x2="158.835" y1="142.571" x1="159.331" id="AT">
   <stop stop-color="#eab788"/>
   <stop stop-color="#f9cca7" offset="1"/>
  </linearGradient>
  <linearGradient xlink:href="#At" y2="291.506" x2="203.333" y1="273.262" x1="207.828" id="AU">
   <stop stop-color="#f0c095"/>
   <stop stop-color="#f6b396" offset="1"/>
  </linearGradient>
  <linearGradient xlink:href="#At" y2="356.492" x2="212.047" y1="289.425" x1="196.758" id="AV">
   <stop stop-color="#7c98d8"/>
   <stop stop-color="#0e2a77" offset="1"/>
  </linearGradient>
  <linearGradient xlink:href="#At" y2="341.302" x2="198.697" y1="333.772" x1="198.697" id="AW">
   <stop stop-color="#dbdbdb"/>
   <stop stop-color="#fcfcfc" offset="1"/>
  </linearGradient>
  <linearGradient xlink:href="#At" y2="323.418" x2="199.669" y1="317.319" x1="251.015" id="AX">
   <stop stop-color="#dbdbdb"/>
   <stop stop-color="#fcfcfc" offset="1"/>
  </linearGradient>
  <linearGradient xlink:href="#At" y2="333.095" x2="204.496" y1="300.831" x1="248.561" id="AY">
   <stop stop-color="#dbdbdb"/>
   <stop stop-color="#fcfcfc" offset="1"/>
  </linearGradient>
  <linearGradient xlink:href="#At" y2="301.053" x2="200.498" y1="285.415" x1="206.057" id="AZ">
   <stop stop-color="#d4e0fc"/>
   <stop stop-color="#7c98d8" offset="1"/>
  </linearGradient>
  <linearGradient xlink:href="#At" y2="365.199" x2="217.77" y1="381.88" x1="204.334" id="Aa">
   <stop stop-color="#b1b1b2"/>
   <stop stop-color="#4b4e51" offset="1"/>
  </linearGradient>
  <linearGradient xlink:href="#At" y2="402.201" x2="262.275" y1="373.01" x1="236.792" id="Ab">
   <stop stop-color="#b1b1b2"/>
   <stop stop-color="#4b4e51" offset="1"/>
  </linearGradient>
  <linearGradient xlink:href="#At" y2="268.244" x2="201.878" y1="296.795" x1="208.074" id="Ac">
   <stop stop-color="#b1b1b2"/>
   <stop stop-color="#4b4e51" offset="1"/>
  </linearGradient>
  <linearGradient xlink:href="#At" y2="270.276" x2="203.305" y1="256.086" x1="198.845" id="Ad">
   <stop stop-color="#b1b1b2"/>
   <stop stop-color="#4b4e51" offset="1"/>
  </linearGradient>
  <linearGradient xlink:href="#At" y2="357.809" x2="221.631" y1="338.813" x1="218.851" id="Ae">
   <stop stop-color="#b1b1b2"/>
   <stop stop-color="#4b4e51" offset="1"/>
  </linearGradient>
  <linearGradient xlink:href="#At" y2="330.881" x2="220.825" y1="353.81" x1="221.473" id="Af">
   <stop stop-color="#b1b1b2"/>
   <stop stop-color="#4b4e51" offset="1"/>
  </linearGradient>
  <linearGradient xlink:href="#At" y2="342.523" x2="221.141" y1="342.523" x1="255.806" id="Ag">
   <stop stop-color="#b1b1b2"/>
   <stop stop-color="#4b4e51" offset="1"/>
  </linearGradient>
  <linearGradient xlink:href="#At" y2="357.744" x2="186.229" y1="357.744" x1="242.138" id="Ah">
   <stop stop-color="#b1b1b2"/>
   <stop stop-color="#4b4e51" offset="1"/>
  </linearGradient>
  <linearGradient xlink:href="#At" y2="332.138" x2="190.056" y1="340.484" x1="194.492" id="Ai">
   <stop stop-color="#b1b1b2"/>
   <stop stop-color="#4b4e51" offset="1"/>
  </linearGradient>
  <linearGradient xlink:href="#At" y2="369.909" x2="210.365" y1="329.831" x1="215.924" id="Aj">
   <stop stop-color="#b1b1b2"/>
   <stop stop-color="#4b4e51" offset="1"/>
  </linearGradient>
  <linearGradient xlink:href="#At" y2="220.746" x2="222.641" y1="157.081" x1="239.07" id="Ak">
   <stop stop-color="#768dc2"/>
   <stop stop-color="#7c98d8" offset="1"/>
  </linearGradient>
  <linearGradient xlink:href="#At" y2="160.758" x2="237.199" y1="108.264" x1="237.199" id="Al">
   <stop stop-color="#faca5c"/>
   <stop stop-color="#f93e12" offset="1"/>
  </linearGradient>
  <linearGradient xlink:href="#At" y2="160.758" x2="262.941" y1="108.264" x1="262.941" id="Am">
   <stop stop-color="#faca5c"/>
   <stop stop-color="#f93e12" offset="1"/>
  </linearGradient>
  <linearGradient xlink:href="#At" y2="160.758" x2="288.683" y1="108.264" x1="288.683" id="An">
   <stop stop-color="#faca5c"/>
   <stop stop-color="#f93e12" offset="1"/>
  </linearGradient>
  <linearGradient xlink:href="#At" y2="160.758" x2="314.414" y1="108.264" x1="314.414" id="Ao">
   <stop stop-color="#faca5c"/>
   <stop stop-color="#f93e12" offset="1"/>
  </linearGradient>
  <linearGradient xlink:href="#At" y2="160.758" x2="339.99" y1="108.264" x1="339.99" id="Ap">
   <stop stop-color="#faca5c"/>
   <stop stop-color="#f93e12" offset="1"/>
  </linearGradient>
  <linearGradient xlink:href="#At" y2="82.5" x2="416.5" y1="33.379" x1="422.692" id="Aq">
   <stop stop-color="#7da4ff"/>
   <stop stop-color="#4763aa" offset="1"/>
  </linearGradient>
  <linearGradient gradientUnits="userSpaceOnUse" id="At"/>
 </defs>
 <g>
  <title>background</title>
  <rect fill="none" id="canvas_background" height="602" width="802" y="-1" x="-1"/>
 </g>
 <g>
  <title>Layer 1</title>
  <path id="svg_1" fill-opacity="0.75" fill="url(#C)" d="m449,369c0,18.783 -98.944,34 -221,34c-122.05,0 -221,-15.217 -221,-34s98.95,-34 221,-34c122.056,0 221,15.217 221,34z"/>
  <path id="svg_2" fill-opacity="0.15" fill="url(#D)" d="m526,372c0,11.6 -48.13,21 -107.5,21s-107.5,-9.4 -107.5,-21s48.132,-21 107.5,-21s107.5,9.4 107.5,21z"/>
  <path id="svg_3" fill-opacity="0.15" fill="url(#E)" d="m476,385.5c0,10.22 -46.338,18.5 -103.5,18.5s-103.5,-8.28 -103.5,-18.5s46.34,-18.5 103.5,-18.5s103.5,8.28 103.5,18.5z"/>
  <path id="svg_4" fill="url(#F)" d="m431.352,159.217l-31.646,179.463l-284.3,0l31.64,-179.462l284.297,0l0.009,-0.001z"/>
  <path id="svg_5" fill="url(#G)" d="m222.182,352.535l0,0.006c0,2.132 -1.415,3.867 -3.163,3.867l-37.697,0c-1.74,0 -3.156,-1.735 -3.156,-3.867l0,-0.006l44.016,0z"/>
  <path id="svg_6" fill="url(#H)" d="m179.718,352.54l0,-0.006l-1.552,0l0,0.006c0,2.132 1.415,3.867 3.156,3.867l1.552,0c-1.74,0 -3.156,-1.735 -3.156,-3.867z"/>
  <path id="svg_7" fill="url(#I)" d="m354.83,359.492l0.085,0c-1.793,2.92 -8.216,4.844 -11.953,4.844l-285.582,0c-3.736,0 -10.16,-1.923 -11.953,-4.844l309.4,0l0.003,0z"/>
  <path id="svg_8" fill="url(#J)" d="m147.055,159.217l-31.64,179.462l-2.715,0l31.646,-179.462l2.7,0l0.009,0z"/>
  <path id="svg_9" fill="url(#K)" d="m289.25,151.275c1.44,0 2.393,1.167 2.14,2.595c-0.248,1.435 -1.617,2.595 -3.058,2.595c-1.428,0 -2.393,-1.154 -2.133,-2.595c0.255,-1.428 1.624,-2.595 3.052,-2.595l-0.001,0z"/>
  <path id="svg_10" fill="url(#L)" d="m287.67,153.87c0.202,-1.174 1.167,-2.158 2.296,-2.478c-0.222,-0.065 -0.457,-0.117 -0.718,-0.117c-1.428,0 -2.797,1.167 -3.045,2.595c-0.26,1.435 0.704,2.595 2.132,2.595c0.26,0 0.51,-0.052 0.763,-0.117c-1.024,-0.32 -1.636,-1.298 -1.428,-2.478z"/>
  <path id="svg_11" fill="url(#M)" d="m354.92,352.535l0,6.957l-309.492,0l0,-6.957l132.732,0.006c0,2.132 1.415,3.867 3.156,3.867l37.697,0c1.74,0 3.163,-1.735 3.163,-3.867l0,-0.006l132.744,0z"/>
  <path id="svg_12" fill="#dbdbdb" d="m372.977,355.084a0.8,0.8 0 0 1 0.802,0.795a0.8,0.8 0 0 1 -0.802,0.802l-11.314,0a0.81,0.81 0 0 1 -0.808,-0.802c0,-0.436 0.365,-0.795 0.808,-0.795l11.314,0zm17.32,0a0.8,0.8 0 0 1 0.802,0.795a0.8,0.8 0 0 1 -0.802,0.802l-11.313,0a0.8,0.8 0 0 1 -0.796,-0.802a0.8,0.8 0 0 1 0.796,-0.795l11.313,0z"/>
  <path id="svg_13" fill="#cccdce" d="m361.598,355.88c0,-0.436 0.365,-0.795 0.8,-0.795l-0.737,0c-0.437,0 -0.8,0.36 -0.8,0.795c0,0.444 0.365,0.802 0.8,0.802l0.737,0c-0.444,0 -0.8,-0.358 -0.8,-0.802zm17.326,0a0.8,0.8 0 0 1 0.795,-0.795l-0.736,0a0.8,0.8 0 0 0 -0.796,0.795a0.8,0.8 0 0 0 0.796,0.802l0.736,0a0.8,0.8 0 0 1 -0.795,-0.802z"/>
  <path id="svg_14" fill="url(#N)" d="m354.92,359.492l51.38,0c-1.8,2.92 -8.223,4.844 -11.953,4.844l-51.378,0c3.736,0 10.16,-1.923 11.953,-4.844l-0.002,0z"/>
  <path id="svg_15" fill="url(#O)" d="m406.298,352.535l0,6.957l-51.378,0l0,-6.957l51.377,0l0.001,0zm-15.2,3.344a0.8,0.8 0 0 0 -0.802,-0.795l-11.313,0a0.8,0.8 0 0 0 -0.796,0.795a0.8,0.8 0 0 0 0.796,0.803l11.313,0a0.8,0.8 0 0 0 0.802,-0.803zm-17.32,0a0.8,0.8 0 0 0 -0.802,-0.795l-11.314,0a0.81,0.81 0 0 0 -0.808,0.795c0,0.444 0.365,0.803 0.808,0.803l11.314,0a0.8,0.8 0 0 0 0.802,-0.803z"/>
  <path id="svg_16" fill="url(#P)" d="m439.43,146.952c5.556,0 9.26,4.5 8.288,10.06l-32.252,182.885c-1.937,10.752 -7.37,12.356 -8.94,12.597c0.43,-0.906 0.743,-1.878 0.92,-2.875l33.96,-192.607c0.978,-5.555 -2.726,-10.06 -8.282,-10.06l6.306,0z"/>
  <path id="svg_17" fill="url(#Q)" d="m433.126,146.952c5.555,0 9.26,4.5 8.28,10.06l-33.96,192.607a11.81,11.81 0 0 1 -0.919,2.875c-0.274,0.04 -0.43,0.04 -0.43,0.04l-305.072,0c-0.118,-0.926 -0.092,-1.898 0.084,-2.915l33.968,-192.607c0.978,-5.555 6.28,-10.06 11.822,-10.06l286.227,0zm-33.42,191.727l31.646,-179.462l-287.002,0l-31.646,179.463l287.002,0l0,-0.001zm-108.318,-184.809c0.254,-1.428 -0.704,-2.595 -2.14,-2.595c-1.428,0 -2.797,1.167 -3.045,2.595c-0.26,1.435 0.704,2.595 2.132,2.595c1.435,0 2.804,-1.154 3.052,-2.595l0.001,0z"/>
  <path id="svg_18" fill="#fcfcfc" d="m428.672,168.124l-208.082,0l1.167,-6.618c0.216,-1.22 -0.6,-2.217 -1.825,-2.217l-56.132,0c-1.22,0 -2.387,0.99 -2.602,2.217l-1.167,6.618l-13.44,0c-0.613,0 -1.193,0.495 -1.304,1.108l-29.887,169.446l284.57,-0.09l29.605,-169.355c0.11,-0.613 -0.3,-1.108 -0.913,-1.108l0.01,-0.001z"/>
  <path id="svg_19" fill="url(#R)" d="m218.374,164c-0.163,0.92 -1.037,1.663 -1.95,1.663c-0.92,0 -1.526,-0.744 -1.37,-1.663c0.163,-0.92 1.037,-1.663 1.956,-1.663c0.913,0 1.526,0.743 1.363,1.663l0.001,0z"/>
  <path id="svg_20" fill="url(#S)" d="m411.41,73.363c9.5,0 15.86,7.707 14.183,17.227l-3.952,20.18c-1.656,9.403 4.532,17.05 13.857,17.22l0,0.006l-51.352,0l6.997,-37.427c1.676,-9.5 10.733,-17.2 20.228,-17.214l0,0.007l0.04,0l-0.001,0.001z"/>
  <path id="svg_21" fill="url(#T)" d="m422.275,110.777l33.8,0c-1.676,9.513 -10.746,17.227 -20.253,17.227c-0.118,0 -0.222,0 -0.333,-0.007c-9.325,-0.17 -15.513,-7.81 -13.857,-17.22l0.633,0l0.01,0z"/>
  <path id="svg_22" fill="url(#U)" d="m284.04,174.318c-16.68,-5.28 -21.917,-25.54 -40.52,-29.942c-20.22,-3.475 -39.13,5.034 -56.235,17.932l-25.285,143.377c4.493,0.144 8.9,0.672 13.16,1.617c40.567,9.7 92.74,18.492 123.245,-24.66c16.68,-24.66 16.57,-59.003 46.826,-75.735c9.266,-4.773 18.395,-8.737 27.524,-12.07l4.382,-24.85c-29.54,-1.076 -66.167,13.236 -93.098,4.33l0.001,0.001z"/>
  <path id="svg_23" fill="url(#V)" d="m391.118,90.687l0.026,-0.117c1.676,-9.5 10.734,-17.2 20.228,-17.214l-191.192,0c-9.514,0 -18.415,6.775 -20.306,17.514l-12.598,71.43c17.104,-12.897 36.015,-21.406 56.236,-17.93c18.597,4.4 23.834,24.66 40.52,29.942c26.93,8.907 63.558,-5.406 93.098,-4.336l13.987,-79.29l0.001,0.001z"/>
  <path id="svg_24" fill="url(#W)" d="m347.39,338.685l25.366,-143.854c-9.13,3.332 -18.258,7.297 -27.524,12.07c-30.257,16.73 -30.146,51.08 -46.827,75.734c-30.51,43.153 -82.677,34.35 -123.244,24.66c-4.264,-0.946 -8.666,-1.467 -13.16,-1.617l-5.816,33l191.204,0.007l0.001,0z"/>
  <path id="svg_25" class="C" d="m354.497,169.063l-29.703,0l0,1.304l29.703,0l0,-1.304zm-43.15,0l-27.283,0l0,1.304l27.283,0l0,-1.304zm41.128,11.47l-70.862,0l0,1.304l70.862,0l0,-1.304zm-2.02,11.47l-70.34,0l0,1.304l70.34,0l0,-1.304zm-2.427,11.467l-69.512,0l0,1.304l69.512,0l0,-1.304zm-1.624,11.47l-142.826,0l0,1.305l142.826,0l0,-1.305z"/>
  <path id="svg_26" fill="#cfd0d1" d="m344.383,226.4l-20.208,0l0,1.304l20.208,0l0,-1.304z"/>
  <path id="svg_27" class="C" d="m316.265,226.4l-114.708,0l0,1.304l114.708,0l0,-1.304zm26.097,11.48l-66.1,0l0,1.304l66.1,0l0,-1.304zm-73.2,0l-69.617,0l0,1.304l69.617,0l0,-1.304zm71.188,11.47l-142.836,0l0,1.304l142.826,0l0,-1.304l0.01,0z"/>
  <path id="svg_28" fill="#cfd0d1" d="m338.32,260.818l-64.92,0l0,1.304l64.91,0l0,-1.304l0.01,0z"/>
  <path id="svg_29" class="C" d="m266.687,260.818l-71.195,0l0,1.304l71.195,0l0,-1.304zm69.6,11.47l-142.817,0l0,1.304l142.826,0l0,-1.304l-0.009,0zm-21.437,11.47l-32.037,0l0,1.304l32.037,0l0,-1.304zm-36.784,0l-86.623,0l0,1.304l86.623,0l0,-1.304zm54.182,11.468l-92.6,0l0,1.305l92.6,0l0,-1.305zm-99.318,0l-43.5,0l0,1.305l43.508,0l0,-1.305l-0.008,0zm97.296,11.47l-28.118,0l0,1.304l28.118,0l0,-1.304zm-37.612,0l-105.214,0l0,1.304l105.214,0l0,-1.304zm-35.244,11.47l-72,0l0,1.304l72,0l0,-1.304z"/>
  <path id="svg_30" fill-opacity="0.2" fill="#4762a9" d="m391.17,147.76l-43.78,190.925l34.228,-190.925l9.553,0l-0.001,0z"/>
  <path id="svg_31" fill="url(#X)" d="m264.8,204.123l-57.606,0l6.932,-34.69l57.605,0l-6.93,34.69l-0.001,0z"/>
  <path id="svg_32" fill="#415da4" d="m297.903,274.348l-1.996,-15.903l163.498,-20.54l1.995,15.904l-163.497,20.54l0,-0.001z"/>
  <path id="svg_33" fill="#6e89cc" d="m295.907,258.445l-1.995,-15.904l163.497,-20.54l1.996,15.903l-163.498,20.54l0,0.001z"/>
  <path id="svg_34" fill="#9eb5ed" d="m293.912,242.54l-2.002,-15.903l163.497,-20.54l2.002,15.903l-163.497,20.54z"/>
  <path id="svg_35" fill="#dfae66" d="m297.902,274.348l-1.995,-15.903l-24.72,-2.55l-2.45,5.816l29.167,12.637l-0.002,0z"/>
  <path id="svg_36" fill="#eac286" d="m295.907,258.445l-2.002,-15.904c0.046,-0.058 -22.27,8.262 -22.27,8.262l-0.45,5.086l24.72,2.556l0.002,0z"/>
  <path id="svg_37" fill="#fcdba9" d="m293.912,242.54l-2.002,-15.903l-25.842,20.683l5.568,3.488l22.276,-8.268z"/>
  <path id="svg_38" fill="url(#Y)" d="m254.487,256.378l11.58,-9.057l5.568,3.488l-0.45,5.086l-2.452,5.817l-14.248,-5.334l0.002,0z"/>
  <path id="svg_39" fill="url(#Z)" d="m469.16,202.676l6.4,51.048l-13.935,1.754l-6.4,-51.048l13.935,-1.754z"/>
  <path id="svg_40" fill="url(#a)" d="m469.623,206.373l5.484,43.66l17.893,-2.25l-5.484,-43.66l-17.893,2.25z"/>
  <g id="svg_41" filter="url(#A)">
   <use id="svg_42" fill-opacity="0.55" fill="url(#b)" xlink:href="#Ar"/>
  </g>
  <use id="svg_43" fill="url(#c)" y="-18" x="4" xlink:href="#Ar"/>
  <g id="svg_44" filter="url(#B)">
   <path id="svg_45" fill-opacity="0.3" fill="url(#d)" d="m71.744,392c20.7,19.662 28.478,30.106 56.256,33.373c0,8.145 -5.214,15.278 -9.414,29.883c-20.708,8.95 -41.005,0.67 -65.586,-29.883c4.854,-15.218 10.87,-26.4 18.744,-33.373z"/>
  </g>
  <path id="svg_46" fill="url(#e)" d="m77.744,362c23.216,31.003 42.325,44.2 61.256,37.156c-5.687,6.7 -10.214,17.25 -14.414,32.06c-20.708,9.076 -41.005,-4.39 -65.586,-35.374c4.854,-15.432 10.87,-26.772 18.744,-33.842z"/>
  <path id="svg_47" fill="url(#f)" d="m321.273,30.432c-4.7,23.167 -14.333,46.086 -30.83,65.354c-11.933,-1.806 -23.918,-6.155 -35.004,-12.917c18.494,-11.678 31.248,-28.742 39.83,-46.75c9.344,0.333 18.356,-1.597 26.005,-5.686l-0.001,-0.001z"/>
  <path id="svg_55" fill="url(#g)" d="m112.62,53.273l80.09,0c1.656,0 2.758,1.343 2.465,3l-7.636,43.29l-12.096,-8.907l0.013,-0.007l-69.42,0c-1.657,0 -2.765,-1.343 -2.472,-3l5.536,-31.376c0.287,-1.65 1.865,-3 3.522,-3l-0.002,0z"/>
  <path id="svg_56" fill="#fff" d="m174.984,72.958l-51.586,0l0.352,-2l51.587,0l-0.353,2zm-52.76,6.672l32.376,0l0.352,-2l-32.376,0l-0.352,2zm38.246,-2l-0.352,2l5.862,0l0.352,-2l-5.862,0zm-6.163,-13.34l-0.352,2l22.2,0l0.352,-2l-22.2,0zm-29.73,1.998l23.984,0l0.345,-2l-23.983,0l-0.346,2z"/>
  <path id="svg_57" fill="url(#h)" d="m235.856,17l24.1,0c2.146,0 3.58,1.74 3.202,3.886l-6.266,35.536l-6.384,-7.55l-20.274,0c-2.145,0 -3.58,-1.74 -3.2,-3.886l4.25,-24.1c0.378,-2.145 2.426,-3.886 4.57,-3.886l0.002,0z"/>
  <path id="svg_58" fill="#fff" d="m246.815,27.294l-1.478,1.23l-1.028,-1.23c-1.445,-1.725 -4.296,-1.725 -6.36,0s-2.57,4.514 -1.125,6.24l6.273,7.466l8.954,-7.468c2.064,-1.725 2.57,-4.514 1.125,-6.24s-4.297,-1.725 -6.36,0l-0.001,0.002z"/>
  <path id="svg_59" fill="url(#i)" d="m409.768,249.577c1.956,15.616 0.06,20.917 -6.032,19.333c2.035,-4.988 5.85,-14.886 6.032,-19.333z"/>
  <path id="svg_60" fill="url(#j)" d="m403.736,268.9l-1.258,3.006c-4.167,2.38 -13.7,4.062 -22.934,-0.717c-0.026,-0.007 -0.052,-0.02 -0.08,-0.04l-5.066,3.077c-2.093,-1.193 -4.865,-5.138 -4.865,-8.222l8.68,-21.367c2.602,-6.632 13.466,-13.7 15.553,-15.363c2.27,-1.682 10.133,-2.947 12.696,-0.834c0.124,0.365 0.267,0.724 0.456,1.05c1.69,3.077 3.137,12.97 2.85,20.07c-0.183,4.454 -3.997,14.352 -6.032,19.34z"/>
  <path id="svg_61" fill="url(#k)" d="m414.332,217.36c1.304,-2.32 -0.867,-4.38 2.113,-6.905c2.758,-2.327 -1.004,-4.733 -2.59,-7.726c-1.702,-3.202 -1.486,-6.886 -5.458,-6.136c-1.95,0.365 -3.782,0.81 -5.823,0.254c-2.197,-0.6 -2.19,1.252 -4.277,0.66c-4.252,-1.22 -8.9,1.663 -5.008,7.36l0.006,0a10.98,10.98 0 0 1 0.574,-1.486s6.553,-0.626 5.75,2.3c-0.137,0.503 -0.163,0.92 -0.117,1.285c3.997,-1.265 10.212,-2.34 12.13,2.126c1.323,3.305 -1.324,7.276 -0.66,10.582a8.1,8.1 0 0 0 0.274,0.587c1.206,-0.476 2.282,-1.487 3.084,-2.902l0.002,0.001z"/>
  <path id="svg_62" fill="url(#l)" d="m411.626,209.092c-1.917,-4.467 -8.125,-3.39 -12.128,-2.126c0.215,1.787 2.2,2.223 2.334,3.462c0.137,1.494 -1.454,5.85 -1.454,5.85l1.245,-0.117s0.94,-5.132 4.213,-3.345s-0.763,4.277 -0.763,4.277c0.99,2.504 2.2,2.81 2.2,2.81c1.37,0.762 2.733,0.834 3.952,0.365a8.1,8.1 0 0 1 -0.274,-0.587c-0.658,-3.313 1.983,-7.283 0.665,-10.59l0.01,0.001z"/>
  <path id="svg_63" class="B" d="m428.66,354.53c0.717,1.09 -1.513,7.146 -4.2,10.57c-0.228,0.294 -0.032,5.027 -0.267,5.27c-0.235,0.254 -0.887,-3.984 -1.122,-3.782c-0.476,0.39 -0.945,0.67 -1.408,0.79l-0.013,0l0.417,-3.606c0.444,-3.677 -3.495,-6.514 -3.495,-6.514c1.832,-1.297 6.312,-5.627 7.225,-6.546c0,0 0.867,2.8 2.856,3.808l0,0.013l0.007,0l0,-0.003z"/>
  <path id="svg_64" fill="url(#m)" d="m425.796,350.715c-0.913,0.92 -5.393,5.25 -7.225,6.547a10.99,10.99 0 0 0 2.452,2.64c0.88,-3.018 3.176,-5.522 5.3,-7.94c-0.358,-0.698 -0.528,-1.246 -0.528,-1.246l0.001,-0.001z"/>
  <path id="svg_65" class="B" d="m351.934,354.647s-2.132,3.02 -1.043,5.386c0.052,0.104 0.098,0.21 0.13,0.313c-0.208,1.128 -6.93,2.334 -11.36,2.373c-0.522,0.007 -5.288,3.104 -5.732,3.072c-0.424,-0.027 3.782,-3.476 3.45,-3.535c-0.835,-0.156 -1.128,-0.13 -1.56,-0.56l3.476,-2.067c3.19,-1.898 3.052,-6.736 3.052,-6.736c2.7,0.88 7.7,1.54 9.585,1.754l0.002,0z"/>
  <path id="svg_66" fill="url(#n)" d="m351.934,354.647c-1.884,-0.21 -6.886,-0.867 -9.58,-1.754c0,0 0.02,0.81 -0.17,1.884c2.83,0.79 5.934,0.79 8.627,2.27c0.384,-1.357 1.12,-2.4 1.12,-2.4l0.003,0z"/>
  <path id="svg_67" class="B" d="m343.327,264.75c4.427,5.138 7.05,4.414 7.05,4.414c-0.28,-2.9 -1.506,-6.18 0.1,-6.56c0.73,1.884 1.284,3.755 2.686,4.916c1.4,1.154 2.55,3.86 2.55,3.86c3,-1.832 13.8,-5.36 13.8,-5.36c0,3.085 2.765,7.036 4.865,8.223c-6.006,1.747 -19.68,4.955 -23.958,2.223c-2.008,-1.284 -3.7,-1.95 -4.12,-3.736c-0.515,-2.178 -3,-4.55 -3.345,-6.442c-0.105,-0.568 -0.02,-1.083 0.352,-1.54l0.02,0.002zm61.746,-47.664c1,2.504 2.2,2.8 2.2,2.8c-0.92,2.008 -1.767,5.705 -0.82,8.56c-2.563,-2.112 -10.434,-0.854 -12.696,0.835c2.073,-1.67 1.304,-6.7 1.304,-6.7s-2.537,0.2 -3.94,-0.965c-0.802,-0.658 -1.037,-2.64 -0.958,-3.788c0.593,0.026 0.815,0.052 1.245,-0.052c0.007,-0.385 0.1,-0.6 0.1,-0.6c-0.495,-0.254 -0.515,-0.176 -1.24,-0.763c0.62,-0.737 0.926,-1.532 0.926,-1.532s-2.112,-0.998 -1.102,-2.217c1,-1.226 2.57,-4.036 2.57,-4.036s0.006,-1.754 0.632,-3.763a10.98,10.98 0 0 1 0.574,-1.486s6.553,-0.626 5.75,2.3c-0.808,2.935 2.067,3.254 2.217,4.747c0.137,1.494 -1.454,5.85 -1.454,5.85l1.246,-0.117s0.94,-5.132 4.212,-3.345s-0.77,4.27 -0.77,4.27l0.004,0.002z"/>
  <path id="svg_68" fill="url(#o)" d="m399.595,204.73c-0.73,-1.832 -5.725,-1.35 -5.725,-1.35a10.98,10.98 0 0 0 -0.574,1.486c-0.013,0.053 -0.026,0.098 -0.046,0.144c1.63,-0.724 4.298,-1.206 6.345,-0.28z"/>
  <path id="svg_69" fill="url(#p)" d="m406.05,225.4c0.04,-2.086 0.62,-4.166 1.226,-5.503c0,0 -1.22,-0.306 -2.21,-2.8c0.66,3.097 -1.245,3.7 0.985,8.313l-0.001,-0.01z"/>
  <path id="svg_70" fill="url(#q)" d="m395.07,222.582c0.065,0.594 0.215,2.243 0.052,3.58c2.517,-0.782 3.345,-2.334 5.204,-4.2c-1.735,0.43 -3.15,0.62 -5.256,0.62z"/>
  <path id="svg_71" fill="url(#r)" d="m337.38,362.25c0.326,0.06 -3.874,3.514 -3.45,3.534c0.444,0.032 5.204,-3.058 5.732,-3.07c4.434,-0.033 11.15,-1.246 11.36,-2.374c1.226,3.006 -0.32,5.15 -1.975,5.862c-0.94,0.41 -4.91,0.483 -7.27,0.698c-2.354,0.228 -10.95,3.527 -14.196,3.84c-3.234,0.313 -4.832,-3.997 -1.898,-4.277c2.12,-0.21 6.606,-2.693 10.134,-4.786c0.437,0.443 0.73,0.417 1.565,0.574l-0.002,-0.001z"/>
  <path id="svg_72" fill="url(#s)" d="m429.448,354.817c3.397,0.776 4.238,3.416 3.782,5.222c-0.24,0.992 -2.608,4.18 -3.86,6.188c-1.252,2.015 -3.86,10.85 -5.582,13.602c-1.722,2.765 -6.1,1.415 -4.545,-1.09c1.167,-1.878 1.923,-7.23 2.406,-11.365l0.013,0c0.456,-0.124 0.932,-0.404 1.408,-0.79c0.235,-0.202 0.887,4.036 1.122,3.782c0.235,-0.248 0.04,-4.975 0.267,-5.27c2.687,-3.423 4.917,-9.48 4.2,-10.57l0,-0.007c0.24,0.13 0.508,0.235 0.79,0.294l-0.001,0.004z"/>
  <path id="svg_73" fill="url(#t)" d="m426.846,349.418c-0.574,0.867 -1.05,1.297 -1.05,1.297c-0.913,0.92 -5.393,5.25 -7.225,6.547l-1.702,1.128c-4.46,-4.056 -18.924,-22.51 -25.8,-34.435c-3.1,-5.405 -5.27,-8.144 -7.708,-16.25c8.647,-4.48 17.587,-9.93 19.093,-13.888c-1,8.405 2.61,26.3 2.61,26.3c9.266,4.22 21.12,27.8 21.773,29.3l0.009,0.001z"/>
  <path id="svg_74" fill="url(#u)" d="m383.365,307.707c-8.87,4.6 -17.45,8.19 -17.45,8.19c2.282,9.93 -11.516,37.37 -12.318,38.803c-1.037,0.072 -1.67,-0.052 -1.67,-0.052c-1.885,-0.21 -6.886,-0.867 -9.58,-1.754c-0.73,-0.085 -1.246,-0.17 -1.963,-0.443c0.867,-10.27 8.157,-40.394 13.902,-47.358c6.43,-7.805 24.532,-32.89 25.255,-33.887c9.228,4.78 18.768,3.097 22.934,0.717c3.867,9.553 2.42,15.33 -0.02,21.896c-1.507,3.958 -10.44,9.41 -19.093,13.89l0.003,-0.002z"/>
  <path id="svg_75" fill="url(#v)" d="m131.53,162.412s3.287,5.88 -0.854,12.97c-1.343,2.295 -1.39,7.968 -0.437,11.56s1.513,5.986 2.504,7.564c0.698,1.088 10.714,13.647 17.437,23.617c-4.82,3.097 -13.766,5.346 -16.635,5.346c-5.9,0.783 -15.93,1.898 -21.264,2.087c-2.048,0.11 -14.046,-0.783 -17.43,-1.41c-1.52,-0.345 -2.054,-0.417 -3.723,-1.35c3.62,-5.334 5.282,-14.613 8.85,-21.21c3.378,-6.24 7.65,-11.3 8.033,-16.2c0.437,-5.536 -6.416,-20.82 -6.416,-20.82c-4.226,1.467 -13.935,6.833 -13.935,6.833c-1.845,1.174 -10.518,10.596 -13.974,14.652c-1.05,-0.007 -3.665,-1.735 -4.78,-2.85c3.49,-5.28 8.5,-14.945 11.522,-18.107c3.567,-3.743 6.606,-6.67 9.214,-8.98c5.8,0 6.756,-2.47 12.664,-3.853c5.1,-1.193 1.917,-5.256 4.48,-5.875c0.607,-0.15 1.402,-0.228 2.244,-0.352c0,1.278 0.437,11.965 10.192,11.697c7.968,-0.215 -0.398,-11.52 -0.398,-11.52c4.062,-0.033 8.203,0.476 11.698,2.34c3.51,1.87 14.868,8.215 14.868,8.215c0.802,-1.447 3,-6.677 4.395,-10.458c1.35,0 5.295,1.258 5.673,1.636c-1.2,7.27 -2.732,18.453 -6.495,19.542c-4.206,1.226 -13.517,-3.273 -17.43,-5.086l-0.003,0.012z"/>
  <path id="svg_76" class="B" d="m167.492,273.95s-1.5,2.074 -4.272,2.582c-2.15,0.385 -4.597,-0.215 -5.2,-0.397c0,-10.524 -9.677,-25.045 -11.1,-29.792c-2.367,-7.786 -0.913,-13.347 -0.913,-13.347c-2.224,-1.005 -7.467,-5.262 -12.435,-9.527c2.87,0 11.822,-2.243 16.634,-5.347c3,4.447 5.34,8.38 5.902,10.557c1.8,7.036 7.38,41.216 11.405,45.27l-0.021,0.001zm-108.918,-31.45c4,0.3 12.82,-4.3 17.202,-7.08c4.37,-2.778 13.296,-2.524 13.296,-2.524c1.154,-1.78 3.926,-5.392 5.77,-8.757c3.384,0.626 15.382,1.52 17.43,1.4c-7.343,7.798 -15.878,15.988 -18.7,16.875c-4.48,1.42 -38.238,8.144 -40.5,9.585c0,0 -0.476,-2.55 1.082,-4.95c1.402,-2.146 4.408,-4.558 4.408,-4.558l0.012,0.009z"/>
  <path id="svg_77" fill="url(#w)" d="m150.18,218.122c-4.82,3.098 -13.766,5.347 -16.635,5.347l5.197,4.35c4.402,-2.523 8.92,-4.597 13.96,-5.796c-0.756,-1.233 -1.604,-2.537 -2.523,-3.9l0.001,-0.001z"/>
  <path id="svg_78" fill="url(#x)" d="m112.28,225.556c-2.047,0.11 -14.045,-0.783 -17.43,-1.41a46.36,46.36 0 0 1 -1.363,2.289c4.786,0.326 9.02,2.263 12.696,5.392c2.028,-2.02 4.11,-4.16 6.097,-6.272l0,0.001z"/>
  <path id="svg_79" class="B" d="m66.008,186.68l0,-0.02c0.698,-0.358 1.708,-1.65 2.902,-3.455c1.11,1.115 3.723,2.842 4.78,2.85l-1.29,1.598c-1.382,1.97 -3.24,3.05 -4.115,3.592c-0.717,0.457 -2.028,0.685 -2.654,0.704c-1.063,0.033 -2.66,-0.762 -3.156,-0.606c-0.51,0.17 -2.048,0.913 -2.048,0.913s-0.822,1.304 -1.682,2.14c-0.71,0.697 -1.206,0.658 -1.5,0.345c0.66,-1.063 0.99,-1.975 1.33,-2.654l0.606,-1.082l-1.056,0.137l-1.232,1.48s-0.287,1.16 -0.724,1.708c-0.378,0.47 -1.01,0.666 -1.493,0.444c0.072,-0.235 0.222,-0.802 0.28,-1.402c-0.36,0.3 -1.174,1.565 -1.956,0.874l0.906,-2.335l1.826,-2.217c-1.07,0.41 -1.467,0.62 -2.106,0.965c-1.135,0.613 -1.74,0.418 -2.093,-0.202l3.776,-2.314l1.2,-0.398c-0.874,-0.287 -0.822,-0.972 -0.763,-1.363c0.874,0.346 3.006,0.613 3.176,0.567c0.906,-0.3 5.75,-0.208 6.984,-0.267c0.033,0.02 0.065,0.02 0.104,0l-0.002,-0.002z"/>
  <path id="svg_80" fill="url(#y)" d="m68.903,183.206l-0.626,0.92c3.495,5.673 -2.83,4.995 -6.247,7.4l0.437,-0.17c0.496,-0.163 2.093,0.633 3.156,0.606c0.626,-0.02 1.937,-0.247 2.654,-0.704c0.874,-0.547 2.732,-1.63 4.115,-3.592c0.21,-0.3 0.665,-0.86 1.29,-1.598c-1.05,-0.02 -3.665,-1.747 -4.78,-2.862l0.001,0z"/>
  <path id="svg_81" class="B" d="m119.16,124.848c1.598,1.982 2.145,5.288 2.145,6.82c0,0.672 2.407,2.432 2.7,3.1c0.678,1.54 -1.115,0.822 -1.115,1.617c0,0.972 1.024,0.51 1.024,1.16c-0.072,0.424 -0.854,1.05 -2.452,0.94c0.033,0.476 0.36,0.79 0.698,0.79c0.613,0.098 2.432,-0.228 1.3,1.35c0.248,1.57 0.11,4.14 -4.884,4.14l0.235,1.44s8.366,11.3 0.398,11.522c-9.755,0.267 -10.192,-10.42 -10.192,-11.698c2.947,-0.398 6.547,-1.154 4.903,-6.103c-1.44,-4.37 -2.158,-5.047 0.946,-9.168c1.076,-1.428 4.317,-2.614 4.284,-5.92l0.01,0.01z"/>
  <path id="svg_82" fill="url(#z)" d="m114.3,142.72c-0.346,2.49 -2.993,3.02 -5.27,3.326c0,0.404 0.046,1.76 0.418,3.416c2.034,-2.7 6.064,-4.896 4.85,-6.742l0.002,0z"/>
  <path id="svg_83" fill="url(#AA)" d="m114.15,143.353c0.417,3.05 3.326,5.868 6.39,5.53c-0.887,-1.54 -1.722,-2.66 -1.722,-2.66l-0.235,-1.44c-1.584,-0.11 -3.273,-0.463 -4.3,-2.04a3.42,3.42 0 0 1 -0.144,0.613l0.011,-0.003z"/>
  <path id="svg_84" class="B" d="m161.225,137.62c0.196,0.783 0.157,1.233 -0.267,1.65c-0.45,0.417 -3.26,1.878 -3.965,2.582c-0.554,0.554 -1.01,2.96 -1.526,6.1c-0.378,-0.378 -4.323,-1.637 -5.673,-1.637l1.18,-3.567c0.483,-2.184 0.014,-3.853 0.405,-5.62c0.17,-0.743 0.404,-4.134 1.297,-4.734c0.952,-0.652 2.674,-0.972 2.91,-0.815c0.3,0.19 0.802,0.84 0.802,0.84s2.862,-1.95 3.593,-1.18c0.724,0.763 0.698,2.126 0.698,2.126s0.573,0.978 0.39,1.85c0.006,-0.006 -0.033,1.617 0.156,2.393l0,0.012z"/>
  <path id="svg_85" fill="url(#AB)" d="m149.788,146.32c1.35,0 5.295,1.258 5.673,1.636l0.632,-3.5c-1.545,3.07 -5.85,0.613 -6.175,1.512l-0.13,0.353l0,-0.001z"/>
  <path id="svg_86" fill="url(#AC)" d="m152.976,132.222c0.802,2.067 0.92,2.074 2.243,4.043c0.83,2.7 1.24,5.3 1.24,6.768c0.177,-0.574 0.353,-0.997 0.542,-1.186c0.254,-0.255 0.782,-0.607 1.376,-0.972c-1.07,-3.084 -1.598,-6.357 -3.02,-9.33c-0.502,0 -1.584,0.248 -2.38,0.678l-0.001,-0.001z"/>
  <path id="svg_87" fill="url(#AD)" d="m158.004,276.135c0.613,0.182 3.058,0.782 5.2,0.397c2.77,-0.508 4.27,-2.582 4.27,-2.582c1.324,1.11 7.212,2.57 8.947,2.83c1.16,0.157 2.96,-0.345 4.082,0.098c1.134,0.456 1.578,1.5 1.578,1.5c-1.135,0.815 -6.038,2.614 -7.114,2.803c-3.378,0.594 -17.528,1.82 -17.528,1.82l0.443,-2.256c-0.84,-1.33 -0.398,-3.09 -0.046,-4.65c0.007,0 0.06,0.02 0.157,0.04l0.011,0z"/>
  <path id="svg_88" fill="url(#AE)" d="m58.574,242.51s-3.013,2.412 -4.408,4.558c-1.56,2.393 -1.083,4.95 -1.083,4.95c-1.74,0.19 -6.925,3.495 -8.314,4.597c-0.933,0.736 -1.82,2.412 -2.928,2.927c-1.115,0.515 -2.204,0.11 -2.204,0.11c0.196,-1.402 2.302,-6.26 2.908,-7.172c1.917,-2.902 10.877,-14.156 10.877,-14.156l1.35,1.904c1.95,0.045 2.132,1.447 3.802,2.282z"/>
  <path id="svg_89" fill="url(#AF)" d="m110.265,121.203c9.057,-4.154 10.635,1.637 8.9,3.645c0.026,3.306 -3.21,4.486 -4.285,5.92c-3.097,4.12 -2.386,4.8 -0.945,9.168c1.637,4.956 -1.956,5.712 -4.904,6.103l-2.243,0.352c-2.563,0.626 0.62,4.688 -4.48,5.875c-5.908,1.383 -6.873,3.854 -12.663,3.854c-4.362,0.508 -14.978,1.16 -10.38,-6.547c2.882,-4.818 -6.195,-2.432 -10.727,-3.964c-10.65,-3.573 -9.9,-16.614 0.893,-10.844c5.132,2.74 3.82,-9.056 13.648,-4.857c7.46,3.188 6.606,-4.095 10.27,-7.6c6.267,-5.998 8.946,2.543 16.915,-1.095l0.001,-0.01z"/>
  <path id="svg_90" fill="url(#AG)" d="m105.276,139.297c-6.175,0 -5.953,9.924 -12.13,9.924c-5.764,0 -7.056,-7.824 -15.102,-7.824c-3.9,0 -12.455,4.212 -14.085,-8.02c-5.132,0.718 -3.828,9.422 4.57,12.246c4.532,1.532 13.61,-0.854 10.727,3.964c-4.597,7.707 6.02,7.05 10.38,6.547c5.79,0 6.756,-2.47 12.664,-3.854c5.1,-1.193 1.917,-5.255 4.48,-5.875c0.607,-0.15 1.402,-0.228 2.244,-0.352c2.914,-0.39 6.442,-1.14 4.955,-5.933c-3.182,6.455 -6.305,-0.822 -8.705,-0.822l0.002,-0.001z"/>
  <path id="svg_91" fill="url(#AH)" d="m131.53,162.412c-1.363,-2.732 -2.66,-2.55 -3.28,-7.12c0,0 3.528,6.918 5.96,8.36l-2.68,-1.24z" opacity="0.4"/>
  <path id="svg_92" fill="url(#AI)" d="m158.884,125.86l-0.11,-0.457l-7.205,0.972l0.287,1.186c2.164,-0.45 4.4,-0.476 6.533,-0.04c0.437,-0.41 0.646,-1.037 0.496,-1.662l-0.001,0.001z"/>
  <path id="svg_93" fill="url(#AJ)" d="m151.86,127.573a1.74,1.74 0 0 0 2.093,1.265l0.105,-0.026l3.54,-0.86a1.67,1.67 0 0 0 0.783,-0.424c-2.126,-0.444 -4.363,-0.41 -6.52,0.045l-0.001,0z"/>
  <path id="svg_94" fill="url(#AK)" d="m154.06,128.812l3.436,-0.834c0.633,4.134 1.578,8.196 2.837,12.173c0.326,1.076 0.274,2.426 -0.698,2.863c-0.19,0.09 -0.385,0.143 -0.587,0.143c-1.14,0.072 -1.773,-1.284 -1.93,-2.23a80.16,80.16 0 0 0 -3.058,-12.115z"/>
  <path id="svg_95" fill="url(#AL)" d="m147.844,126.824l3.73,-0.45c-0.984,0.045 -1.84,-0.294 -2.536,-0.874c-1.598,0.254 -3.228,0.358 -4.663,-0.294c0.81,1.037 2.002,1.722 3.47,1.618l-0.001,0z"/>
  <path id="svg_96" fill="url(#AM)" d="m149.468,116.365l-3.834,1.39c-2.987,1.206 -3.032,5.177 -1.26,7.446c1.435,0.658 3.065,0.554 4.663,0.293c-2.602,-2.158 -2.98,-7.687 0.43,-9.128l0.001,-0.001z"/>
  <path id="svg_97" fill="url(#AN)" d="m173.74,112.022c-0.802,-0.313 -1.715,-0.39 -2.615,-0.17l-0.763,0.19c-0.587,3.17 1.115,6.35 3.84,7.96c0.476,-0.254 0.9,-0.587 1.252,-0.978a4.38,4.38 0 0 0 0.971,-3.938c-0.352,-1.46 -1.39,-2.563 -2.686,-3.065l0.001,0.001z"/>
  <path id="svg_98" fill="url(#AO)" d="m170.36,112.035l-1.604,0.39c0.176,1.337 0.45,2.804 0.815,4.317l1.252,4.212l2.367,-0.574a4.16,4.16 0 0 0 1.004,-0.378c-2.72,-1.617 -4.42,-4.8 -3.834,-7.968l0,0.001z"/>
  <path id="svg_99" fill="url(#AP)" d="m175.454,119.025c0.645,4.206 0.404,7.394 -0.724,7.668c-0.294,0.072 -0.626,-0.065 -0.985,-0.372c-0.913,-0.795 -1.976,-2.758 -2.915,-5.366l2.367,-0.574c0.907,-0.22 1.683,-0.704 2.257,-1.356z"/>
  <path id="svg_100" fill="url(#AQ)" d="m169.598,105.54c1.115,-0.267 2.797,2.53 4.14,6.48c-0.802,-0.313 -1.715,-0.39 -2.615,-0.17l-2.367,0.573c-0.32,-2.445 -0.326,-4.473 -0.007,-5.685c0.19,-0.685 0.463,-1.102 0.848,-1.2l0.001,0.002z"/>
  <path id="svg_101" fill="url(#AR)" d="m164.616,122.272c2.12,-0.384 4.304,-0.684 6.488,-0.58l-0.274,-0.73l-0.052,-0.15c-0.437,-1.233 -0.847,-2.602 -1.2,-4.063l-0.704,-3.547l-0.11,-0.776l-0.202,-2.02c-0.09,-1.54 -0.032,-2.8 0.196,-3.664c-3.045,4.518 -12.63,7.38 -19.282,9.624l-0.007,0c-1.14,0.482 -1.865,1.428 -2.217,2.55c-0.287,0.92 -0.326,1.956 -0.157,2.954c0.248,1.428 0.92,2.778 1.937,3.625c0.71,-0.117 1.422,-0.26 2.093,-0.378c4.558,-0.84 8.967,-1.917 13.492,-2.843l-0.001,-0.002z"/>
  <path id="svg_102" fill="url(#AS)" d="m164.616,122.272l-13.485,2.85l-2.093,0.378a3.62,3.62 0 0 0 2.536,0.874c0.033,-0.007 0.065,-0.007 0.105,-0.013l7.1,-0.96c5.673,-0.658 11.62,-0.92 14.978,0.92c-0.828,-0.717 -1.774,-2.393 -2.64,-4.63c-2.197,-0.104 -4.382,0.196 -6.5,0.58l-0.001,0.001z"/>
  <path id="svg_103" fill="#fcfcfc" d="m150.668,125.206l0.156,0.13a6.01,6.01 0 0 0 1.663,0.913l2.028,-0.287c-1.173,-0.033 -2.165,-0.378 -2.973,-0.92l-0.4,0.08l-0.463,0.084l-0.011,0zm0.92,-9.546l-1.72,0.573c-1.402,1.572 -1.74,3.665 -1.317,5.47c0.32,1.4 1.07,2.62 2.125,3.495l0.463,-0.085l0.4,-0.078c-1.245,-0.835 -2.04,-2.145 -2.354,-3.5c-0.482,-2.034 0.124,-4.492 2.393,-5.887l0.01,0.012z" opacity="0.6"/>
  <path id="svg_104" class="B" d="m158.467,131.3c-1.376,0.508 -2.556,1.33 -1.402,2.477c-0.522,0.522 -1.083,2.035 0.424,2.413c-0.66,0.456 -0.802,1.82 0.274,1.82c0,0 -0.587,1.265 0.586,1.167c1.18,-0.104 2.01,-0.313 2.16,-0.945c0.75,-3.19 -0.307,-7.57 -2.04,-6.93l-0.002,-0.002z"/>
  <path id="svg_105" fill="url(#AT)" d="m157.045,136.84c-0.182,0.548 -0.026,1.187 0.71,1.187c0,0 -0.587,1.264 0.587,1.167c1.18,-0.105 2.008,-0.313 2.158,-0.946a9.62,9.62 0 0 0 0.242,-2.093c-0.353,2.426 -1.73,1.937 -3.698,0.685l0.001,0z"/>
  <path id="svg_106" class="B" d="m152.637,132.503c0.294,-0.678 2.706,-1.787 4.14,-3.104c0.51,0.665 0.802,0.92 -0.11,2.12c-0.84,1.11 -0.932,1.54 -1.74,2.817c-0.802,1.27 -3.313,0.54 -2.29,-1.832l0,-0.001z"/>
  <path id="svg_107" fill="url(#AU)" d="m197.677,283.53c0,2.973 -0.026,5.236 -2.263,7.06c7.12,8.888 17.417,7.232 15.644,-0.586c-1.057,-0.34 -1.722,-1.01 -1.455,-3.358c-1.03,1.108 -10.485,-1.676 -11.926,-3.117l0,0.001z"/>
  <path id="svg_108" fill="url(#AV)" d="m180.05,304.987c2.074,-7.524 8.9,-10.987 13.1,-13.04c4.428,5.9 11.105,8.574 16.224,7.394c4.526,-1.044 4.174,-6.97 3.593,-8.888c3.495,0.776 9.247,2.23 13.694,6.997c1.806,1.93 4.956,5.862 5.915,6.82l-31.235,3.313l0,20.35l-2.726,-0.13c-3.626,0.698 -2.77,5.712 -2.556,6.77a1.62,1.62 0 0 0 0.052,0.195c-2.38,0 -7.734,3.64 -12.54,5.314c-2.628,0.926 -5.093,1.26 -6.8,0.098c-4.838,-3.286 1.154,-27.457 3.28,-35.19l-0.001,-0.003z"/>
  <path id="svg_109" fill="url(#AW)" d="m196.105,334.766l0,0.026l5.23,3.065l0,-3.1c-1.48,-0.287 -3.952,-0.646 -5.275,-0.176l-0.007,0l0.052,0.195l0,-0.01z"/>
  <path id="svg_110" fill="url(#AX)" d="m202.678,308.665l47.375,-5.027l-1.337,-1.076l-47.38,5.02l0,30.646c0.444,0.123 0.887,0.286 1.343,0.463l0,-30.027l-0.001,0.001z"/>
  <path id="svg_111" fill="url(#AY)" d="m202.678,308.665l0,30.033c1.096,0.443 2.198,1.03 3.21,1.65l30.283,-4.675l5.38,-6.254c2.61,-2.608 4.637,-4.46 6.378,-5.372l0,-0.007l2.126,-20.39l-47.375,5.014l-0.002,0.001z"/>
  <use id="svg_112" fill="url(#AZ)" xlink:href="#As"/>
  <path id="svg_113" fill="#f5b396" d="m247.58,378.427c-1.1,-1.1 -4.356,-2.85 -5.667,-4.153a10.12,10.12 0 0 1 -4.727,5.998c1.356,0.352 3.28,2.256 5.112,4.545c-1.904,-2.62 -2.074,-4.284 0.633,-6.273c1.82,-1.343 3.07,-0.6 5.2,0.4l-0.54,-0.528l-0.011,0.011zm-48.964,-50.625c-3.626,0.698 -2.77,5.712 -2.556,6.77l0.006,0c1.324,-0.476 3.795,-0.1 5.276,0.176l0,-6.814l-2.726,-0.13l0,-0.002z"/>
  <use id="svg_114" fill="url(#AZ)" xlink:href="#As"/>
  <path id="svg_115" fill="url(#Aa)" d="m210.875,381.407c1.54,0 3.958,-5.53 5.608,-8.32c1.65,-2.778 2.015,-3.15 2.015,-3.15l-6.788,-4.303l-5.113,5.105c-2.034,2.035 -0.997,10.668 4.278,10.668z"/>
  <path id="svg_116" fill="url(#Ab)" d="m242.35,384.87c1.846,2.32 3.613,5.027 4.637,6.925c2.77,5.157 6.88,11.593 13.49,7.16c5.184,-3.47 -2.562,-9.924 -4.493,-12.323c-2.295,-2.843 -6.194,-6.17 -7.857,-7.68c-2.12,-1.01 -3.372,-1.754 -5.19,-0.41c-2.706,1.995 -2.536,3.658 -0.632,6.272c0.013,0.013 0.026,0.04 0.045,0.06l0,-0.004z"/>
  <path id="svg_117" fill="url(#Ac)" d="m196.373,270.116c6.155,-2.738 12.31,0.58 18.467,0.02c-0.365,0.476 -1.024,0.945 -2.106,1.336c0,0 -2.772,0.86 -6.77,1.187c-3.64,0.294 -4.87,-0.743 -5.973,-0.56c-0.365,0.06 -0.724,0.255 -1.14,0.68c-1.696,1.695 0.176,6.442 0.176,6.442l-1.187,0s-2.035,-2.824 -3.078,-0.848c-0.202,0.378 -0.215,0.802 -0.11,1.232c-0.476,-0.058 -0.906,-0.234 -1.304,-0.482c-1.252,-0.79 -2.106,-2.42 -2.57,-4.258c1.226,-2.02 3.528,-3.508 5.595,-4.747l0,-0.002z"/>
  <path id="svg_118" fill="url(#Ad)" d="m191.586,267.052c0.783,-0.842 1.292,-1.304 1.735,-1.63c0.815,-0.594 1.408,-0.744 2.993,-1.878l0.11,-0.08c3.312,-2.347 6.7,-2.445 8.744,-1.173c1.787,-0.535 5.074,-0.926 5.908,0.808c3.867,0 6.893,2.837 2.55,4.402c1.193,0.247 2.093,1.467 1.213,2.627c-6.156,0.555 -12.312,-2.758 -18.467,-0.02c-2.067,1.24 -4.363,2.725 -5.608,4.747c-0.75,-2.935 -0.476,-6.4 0.82,-7.805l0.002,0.002z"/>
  <path id="svg_119" fill="url(#Ae)" d="m225.586,343.973c0.96,0.32 2.06,0.79 2.908,1.54l-2.294,2.887c-3.684,0.783 -6.45,1.76 -9.136,1.774l-6.077,-5.9c4.65,-1.513 9.794,-1.67 14.6,-0.3l-0.001,-0.001z"/>
  <path id="svg_120" fill="url(#Af)" d="m205.887,340.34l30.283,-4.675l-7.67,9.852c-0.848,-0.75 -1.95,-1.22 -2.908,-1.538c-4.806,-1.376 -9.958,-1.213 -14.6,0.3c-0.842,-0.795 -1.455,-1.362 -1.728,-1.577c-0.868,-0.68 -2.055,-1.552 -3.378,-2.36l0.001,-0.002z"/>
  <path id="svg_121" fill="url(#Ag)" d="m221.14,354.2l4.16,4.14l3.482,3.3c2.42,-2.413 9.286,-6.775 17.978,-13.74c8.712,-6.963 12.097,-18.472 5.804,-23.584c-1.44,-1.174 -2.895,-1.213 -4.643,-0.3l0,0.007c-1.748,0.912 -3.776,2.764 -6.377,5.372c-1.5,1.5 -3.36,3.717 -5.38,6.254l-9.964,12.751c-1.865,2.31 -3.6,4.343 -5.06,5.8z"/>
  <path id="svg_122" fill="url(#Ah)" d="m202.157,338.496l0.52,0.196c1.096,0.443 2.198,1.03 3.21,1.65a37.21,37.21 0 0 1 3.371,2.354c0.763,0.593 4.154,3.893 7.805,7.48l4.083,4.036l4.16,4.14c0.893,0.9 2.106,2.034 3.482,3.3c5.438,4.995 13.342,11.79 13.342,11.79c-0.06,0.287 -0.13,0.56 -0.216,0.828a10.04,10.04 0 0 1 -1.682,3.338c-18.656,-2.797 -34.508,-14.664 -45.757,-29.844a16.87,16.87 0 0 0 0.652,2.817c-4.167,-1.67 -7.023,-5.138 -8.9,-9.233c4.42,-3.07 10.453,-4.33 15.93,-2.85l0,-0.002z"/>
  <path id="svg_123" fill="url(#Ai)" d="m196.106,334.766l0,0.026l5.23,3.065l0,0.372l0.822,0.267c-5.478,-1.48 -11.51,-0.222 -15.93,2.85a26.29,26.29 0 0 1 -0.821,-1.982c4.27,-1.826 8.627,-4.597 10.7,-4.597l-0.001,-0.001z"/>
  <path id="svg_124" fill="url(#Aj)" d="m185.405,339.363c1.832,4.943 4.897,9.285 9.722,11.215c-0.293,-0.906 -0.52,-1.852 -0.658,-2.823c11.248,15.18 27.1,27.053 45.763,29.85c-1.076,1.41 -2.302,2.243 -3.04,2.654c-0.41,0.222 -0.665,0.326 -0.665,0.326c-2.954,-1.304 -10.57,-5.972 -18.023,-10.654c-2.328,-1.467 -4.565,-3.058 -6.79,-4.304c-12.944,-7.23 -28.144,-18.68 -28.144,-25.553c0.6,-0.202 1.213,-0.45 1.833,-0.71l0.002,-0.001z"/>
  <path id="svg_125" class="B" d="m194.75,278.37c1.043,-1.976 3.078,0.848 3.078,0.848l1.187,0s-1.872,-4.747 -0.176,-6.442c1.695,-1.702 2.262,0.28 7.114,-0.118c3.997,-0.326 6.77,-1.186 6.77,-1.186l0,3.37l-0.326,2.034c0.02,1.22 0.39,1.943 0.39,3.097c0,1.806 -0.71,6.025 -2.31,7.342c-2.3,1.89 -5.647,1.76 -7.5,0.978c-3.345,-1.402 -3.866,-3.325 -5.3,-4.76c-1.832,-0.626 -2.648,-2.282 -3.04,-3.925c-0.104,-0.437 -0.09,-0.86 0.11,-1.24l0.003,0.002z"/>
  <path id="svg_126" fill="url(#Ak)" d="m234.82,191.22l-14.405,0l-3.534,5.83c-0.874,1.44 -1.376,2.517 -1.5,3.228c-0.098,0.56 0.078,1.063 0.548,1.487c0.463,0.43 1.578,0.704 3.338,0.834l-0.176,1.01l-11.68,0l0.176,-1.01c1.598,-0.274 2.667,-0.632 3.196,-1.07c1.082,-0.874 2.425,-2.654 4.03,-5.334l18.447,-30.502l0.94,0l7.466,30.835c0.6,2.478 1.26,4.088 1.983,4.825c0.717,0.737 1.826,1.154 3.32,1.245l-0.176,1.01l-14.626,0l0.176,-1.01c1.486,-0.07 2.53,-0.32 3.123,-0.736s0.946,-0.933 1.05,-1.533c0.143,-0.802 0,-2.067 -0.424,-3.8l-1.27,-5.308l-0.002,-0.001zm-0.5,-2.028l-3.606,-14.984l-9.083,14.984l12.69,0l-0.001,0z"/>
  <path id="svg_127" fill="url(#Al)" d="m236.728,108.277c0.13,-0.267 0.287,-0.404 0.515,-0.404l1.213,0l1.604,5.314c0.26,0.535 0.96,1.043 1.546,1.128l5.405,0.75c0.594,0.078 0.724,0.49 0.294,0.9l-3.932,3.78c-0.574,0.574 -0.698,1.233 -0.594,1.82l1.865,6.044c-0.613,0 -0.86,-0.007 -1.206,-0.007c-0.13,0 -0.287,-0.013 -0.463,-0.1l-4.812,-2.576c-0.53,-0.28 -1.39,-0.28 -1.918,0l-3.984,2.686l-1.213,0c-0.293,0.007 -0.456,-0.24 -0.378,-0.67l0.96,-5.373c0.104,-0.587 -0.163,-1.408 -0.594,-1.82l-3.932,-3.782c-0.43,-0.41 -0.3,-0.822 0.294,-0.9l5.405,-0.75a2.27,2.27 0 0 0 1.546,-1.128l2.38,-4.903l-0.001,-0.009z"/>
  <path id="svg_128" fill="url(#Am)" d="m262.466,108.277c0.13,-0.267 0.287,-0.404 0.515,-0.404l1.213,0l1.604,5.314c0.26,0.535 0.958,1.043 1.545,1.128l5.406,0.75c0.593,0.078 0.724,0.49 0.294,0.9l-3.933,3.78c-0.573,0.574 -0.697,1.233 -0.593,1.82l1.865,6.044c-0.613,0 -0.86,-0.007 -1.206,-0.007c-0.13,0 -0.287,-0.013 -0.463,-0.1l-4.813,-2.576c-0.528,-0.28 -1.39,-0.28 -1.917,0l-3.983,2.677l-1.213,0c-0.293,0.007 -0.456,-0.24 -0.378,-0.67l0.958,-5.373c0.105,-0.587 -0.163,-1.408 -0.593,-1.82l-3.932,-3.782c-0.43,-0.41 -0.3,-0.822 0.293,-0.9l5.406,-0.75c0.594,-0.084 1.29,-0.587 1.546,-1.128l2.38,-4.903l-0.001,0z"/>
  <path id="svg_129" fill="url(#An)" d="m288.2,108.277c0.13,-0.267 0.287,-0.404 0.515,-0.404l1.213,0l1.604,5.314c0.26,0.535 0.96,1.043 1.546,1.128l5.406,0.75c0.593,0.078 0.723,0.49 0.293,0.9l-3.932,3.78a1.99,1.99 0 0 0 -0.593,1.82l1.865,6.044c-0.613,0 -0.86,-0.007 -1.207,-0.007c-0.13,0 -0.287,-0.013 -0.463,-0.1l-4.812,-2.576c-0.528,-0.28 -1.39,-0.28 -1.91,0l-3.984,2.686l-1.213,0c-0.293,0.007 -0.456,-0.24 -0.378,-0.67l0.958,-5.373c0.105,-0.587 -0.163,-1.408 -0.593,-1.82l-3.932,-3.782c-0.43,-0.41 -0.3,-0.822 0.293,-0.9l5.406,-0.75c0.594,-0.084 1.29,-0.587 1.546,-1.128l2.373,-4.903l-0.001,-0.009z"/>
  <path id="svg_130" fill="url(#Ao)" d="m313.94,108.277c0.13,-0.267 0.287,-0.404 0.516,-0.404l1.212,0l1.605,5.314a2.3,2.3 0 0 0 1.545,1.128l5.406,0.75c0.593,0.078 0.724,0.49 0.293,0.9l-3.932,3.78a1.99,1.99 0 0 0 -0.593,1.82l1.865,6.044c-0.613,0 -0.86,-0.007 -1.207,-0.007c-0.13,0 -0.287,-0.013 -0.463,-0.1l-4.812,-2.576c-0.528,-0.28 -1.39,-0.28 -1.91,0l-3.984,2.686l-1.213,0c-0.293,0.007 -0.456,-0.24 -0.378,-0.67l0.96,-5.373c0.104,-0.587 -0.163,-1.408 -0.594,-1.82l-3.932,-3.782c-0.43,-0.41 -0.3,-0.822 0.294,-0.9l5.405,-0.75c0.594,-0.084 1.29,-0.587 1.546,-1.128l2.373,-4.903l-0.002,-0.009z"/>
  <path id="svg_131" fill="url(#Ap)" d="m339.516,108.277c0.13,-0.267 0.287,-0.404 0.515,-0.404l1.213,0l1.605,5.314a2.3,2.3 0 0 0 1.545,1.128l5.406,0.75c0.593,0.078 0.724,0.49 0.293,0.9l-3.932,3.78a1.99,1.99 0 0 0 -0.593,1.82l1.865,6.044c-0.613,0 -0.86,-0.007 -1.207,-0.007c-0.13,0 -0.287,-0.013 -0.463,-0.1l-4.812,-2.576c-0.528,-0.28 -1.39,-0.28 -1.91,0l-3.984,2.686l-1.213,0c-0.293,0.007 -0.456,-0.24 -0.378,-0.67l0.96,-5.373c0.104,-0.587 -0.163,-1.408 -0.594,-1.82l-3.932,-3.782c-0.43,-0.41 -0.3,-0.822 0.294,-0.9l5.405,-0.75c0.594,-0.084 1.29,-0.587 1.546,-1.128l2.373,-4.903l-0.002,-0.009z"/>
  <path id="svg_132" fill="url(#Aq)" d="m435.588,43.66l-28.794,0.85a4.67,4.67 0 0 0 -5.149,4.133l-5.645,40.453l9.205,-7.014l26.217,-0.35a4.67,4.67 0 0 0 5.149,-4.133l3.15,-28.792a4.67,4.67 0 0 0 -4.134,-5.149l0.001,0.002z"/>
  <g id="svg_133" fill="#fff">
   <path id="svg_134" d="m427.8,57.947l-7.377,0c0.364,-0.846 0.784,-1.897 0.885,-2.43c0.105,-0.54 0,-1.844 0,-1.844c0,-0.976 -0.775,-1.767 -1.73,-1.767l-0.867,0l0,2.73s-3.025,3.607 -3.025,5.08l0,8.618c0,0.975 0.774,1.767 1.73,1.767l6.055,0c0.954,0 2.013,-0.792 2.36,-1.767l3.07,-8.618c0.346,-0.976 -0.144,-1.767 -1.1,-1.767l-0.001,-0.002z"/>
   <path id="svg_135" d="m416.758,59.347l-2.307,0l0,9.653l2.307,0l0,-9.652l0,-0.001z"/>
  </g>
  <path id="svg_136" fill="#abc9fe" d="m413.107,58.842l-4.107,0l0,12.153l4.107,0l0,-12.153z"/>
 </g>
</svg>