<svg width="1600" height="400" xmlns="http://www.w3.org/2000/svg">

 <g>
  <title>background</title>
  <rect fill="none" id="canvas_background" height="602" width="802" y="-1" x="-1"/>
 </g>
 <g>
  <title>Layer 1</title>
  <path opacity="0.25" id="svg_1" fill="rgb(146,108,172)" d="m744.9,263.2l-47.7,43.7l155.4,98.6l-107.7,-142.3z"/>
  <path opacity="0.25" id="svg_2" fill="rgb(140,107,176)" d="m852.6,405.5l41.5,-99l-149.2,-43.3l107.7,142.3z"/>
  <path opacity="0.25" id="svg_3" fill="rgb(156,116,173)" d="m697.2,306.9l-4.3,235.9l159.7,-137.3l-155.4,-98.6z"/>
  <path opacity="0.25" id="svg_4" fill="rgb(109,53,122)" d="m783.4,610l198.3,-123.2l-129.1,-81.3l-69.2,204.5z"/>
  <path opacity="0.25" id="svg_5" fill="rgb(110,64,127)" d="m852.6,405.5l129.1,81.3l-87.6,-180.3l-41.5,99z"/>
  <path opacity="0.25" id="svg_6" fill="rgb(141,137,191)" d="m1075,269.8l-111.6,-87l-69.3,123.7l180.9,-36.7z"/>
  <path opacity="0.25" id="svg_7" fill="rgb(141,130,188)" d="m894.1,306.5l69.3,-123.7l-218.5,80.4l149.2,43.3z"/>
  <path opacity="0.25" id="svg_8" fill="rgb(130,86,150)" d="m692.9,542.8l90.5,67.2l69.2,-204.5l-159.7,137.3z"/>
  <path opacity="0.25" id="svg_9" fill="rgb(173,198,223)" d="m800.8,46.4l-106.4,52.9l50.5,163.9l55.9,-216.8z"/>
  <path opacity="0.25" id="svg_10" fill="rgb(155,156,202)" d="m744.9,263.2l-50.5,-163.9l2.8,207.6l47.7,-43.7z"/>
  <path opacity="0.25" id="svg_11" fill="rgb(114,84,136)" d="m697.2,306.9l-222,93.9l217.7,142l4.3,-235.9z"/>
  <path opacity="0.25" id="svg_12" fill="rgb(149,165,206)" d="m499,149.5l-10,123.6l208.2,33.8l-198.2,-157.4z"/>
  <path opacity="0.25" id="svg_13" fill="rgb(150,170,209)" d="m963.4,182.8l-162.6,-136.4l-55.9,216.8l218.5,-80.4z"/>
  <path opacity="0.25" id="svg_14" fill="rgb(123,48,133)" d="m981.7,486.8l93.3,-217l-180.9,36.7l87.6,180.3z"/>
  <path opacity="0.25" id="svg_15" fill="rgb(194,191,221)" d="m976.5,-73.8l-170.9,30.7l-4.8,89.5l175.7,-120.2z"/>
  <path opacity="0.25" id="svg_16" fill="rgb(166,126,180)" d="m489,273.1l-13.8,127.7l222,-93.9l-208.2,-33.8z"/>
  <path opacity="0.25" id="svg_17" fill="rgb(116,86,138)" d="m692.9,542.8l-139.8,64.6l230.3,2.6l-90.5,-67.2z"/>
  <path opacity="0.25" id="svg_18" fill="rgb(143,108,162)" d="m475.2,400.8l77.9,206.6l139.8,-64.6l-217.7,-142z"/>
  <path opacity="0.25" id="svg_19" fill="rgb(158,186,217)" d="m694.4,99.3l-195.4,50.2l198.2,157.4l-2.8,-207.6z"/>
  <path opacity="0.25" id="svg_20" fill="rgb(171,155,202)" d="m489,273.1l-209.3,-45.7l195.5,173.4l13.8,-127.7z"/>
  <path opacity="0.25" id="svg_21" fill="rgb(196,209,230)" d="m571.7,-108l-72.7,257.5l195.4,-50.2l-122.7,-207.3z"/>
  <path opacity="0.25" id="svg_22" fill="rgb(133,88,153)" d="m553.1,607.4l346.6,87.4l-116.3,-84.8l-230.3,-2.6z"/>
  <path opacity="0.25" id="svg_23" fill="rgb(109,59,124)" d="m783.4,610l116.3,84.8l82,-208l-198.3,123.2z"/>
  <path opacity="0.25" id="svg_24" fill="rgb(132,42,138)" d="m981.7,486.8l170.7,-47.3l-77.4,-169.7l-93.3,217z"/>
  <path opacity="0.25" id="svg_25" fill="rgb(135,61,148)" d="m1129,665.3l23.4,-225.8l-170.7,47.3l147.3,178.5z"/>
  <path opacity="0.25" id="svg_26" fill="rgb(178,164,207)" d="m976.5,-73.8l-175.7,120.2l162.6,136.4l13.1,-256.6z"/>
  <path opacity="0.25" id="svg_27" fill="rgb(197,210,231)" d="m800.8,46.4l4.8,-89.5l-111.2,142.4l106.4,-52.9z"/>
  <path opacity="0.25" id="svg_28" fill="rgb(194,182,217)" d="m1128.1,-51.8l-151.6,-22l-13.1,256.6l164.7,-234.6z"/>
  <path opacity="0.25" id="svg_29" fill="rgb(150,118,177)" d="m1200.8,41.6l-237.4,141.2l111.6,87l125.8,-228.2z"/>
  <path opacity="0.25" id="svg_30" fill="rgb(118,48,128)" d="m899.7,694.8l229.3,-29.5l-147.3,-178.5l-82,208z"/>
  <path opacity="0.25" id="svg_31" fill="rgb(193,206,228)" d="m574.5,-174.7l-2.8,66.7l233.9,64.9l-231.1,-131.6z"/>
  <path opacity="0.25" id="svg_32" fill="rgb(205,221,236)" d="m805.6,-43.1l-233.9,-64.9l122.7,207.3l111.2,-142.4z"/>
  <path opacity="0.25" id="svg_33" fill="rgb(115,39,124)" d="m1129,665.3l127.8,-135.2l-104.4,-90.6l-23.4,225.8z"/>
  <path opacity="0.25" id="svg_34" fill="rgb(150,120,179)" d="m1287.8,59.7l-87,-18.1l-125.8,228.2l212.8,-210.1z"/>
  <path opacity="0.25" id="svg_35" fill="rgb(156,177,212)" d="m242.7,119.9l37,107.5l219.3,-77.9l-256.3,-29.6z"/>
  <path opacity="0.25" id="svg_36" fill="rgb(173,169,209)" d="m499,149.5l-219.3,77.9l209.3,45.7l10,-123.6z"/>
  <path opacity="0.25" id="svg_37" fill="rgb(119,94,141)" d="m475.2,400.8l-109.3,277.2l187.2,-70.6l-77.9,-206.6z"/>
  <path opacity="0.25" id="svg_38" fill="rgb(149,136,192)" d="m1287.8,59.7l-212.8,210.1l308.3,-55l-95.5,-155.1z"/>
  <path opacity="0.25" id="svg_39" fill="rgb(144,109,163)" d="m246.5,492.9l119.4,185.1l109.3,-277.2l-228.7,92.1z"/>
  <path opacity="0.25" id="svg_40" fill="rgb(115,86,137)" d="m553.1,607.4l-187.2,70.6l533.8,16.8l-346.6,-87.4z"/>
  <path opacity="0.25" id="svg_41" fill="rgb(169,131,184)" d="m1200.8,41.6l-72.7,-93.4l-164.7,234.6l237.4,-141.2z"/>
  <path opacity="0.25" id="svg_42" fill="rgb(203,219,235)" d="m571.7,-108l-165.2,74.3l92.5,183.2l72.7,-257.5z"/>
  <path opacity="0.25" id="svg_43" fill="rgb(155,121,157)" d="m279.7,227.4l-33.2,265.5l228.7,-92.1l-195.5,-173.4z"/>
  <path opacity="0.25" id="svg_44" fill="rgb(107,38,116)" d="m1129,665.3l142.3,-54.4l-14.5,-80.8l-127.8,135.2z"/>
  <path opacity="0.25" id="svg_45" fill="rgb(134,54,147)" d="m1383.3,214.8l-308.3,55l77.4,169.7l230.9,-224.7z"/>
  <path opacity="0.25" id="svg_46" fill="rgb(209,224,238)" d="m826.6,-283.3l-252.1,108.6l231.1,131.6l21,-240.2z"/>
  <path opacity="0.25" id="svg_47" fill="rgb(198,212,232)" d="m571.7,-108l-42.2,-60.9l-123,135.2l165.2,-74.3z"/>
  <path opacity="0.25" id="svg_48" fill="rgb(199,213,232)" d="m826.6,-283.3l-21,240.2l170.9,-30.7l-149.9,-209.5z"/>
  <path opacity="0.25" id="svg_49" fill="rgb(198,210,231)" d="m574.5,-174.7l-45,5.8l42.2,60.9l2.8,-66.7z"/>
  <path opacity="0.25" id="svg_50" fill="rgb(227,238,245)" d="m406.5,-33.7l-163.8,153.6l256.3,29.6l-92.5,-183.2z"/>
  <path opacity="0.25" id="svg_51" fill="rgb(173,131,172)" d="m279.7,227.4l-129.8,173.7l96.6,91.8l33.2,-265.5z"/>
  <path opacity="0.25" id="svg_52" fill="rgb(197,216,233)" d="m203.5,17.6l39.2,102.3l163.8,-153.6l-203,51.3z"/>
  <path opacity="0.25" id="svg_53" fill="rgb(186,170,211)" d="m1200.8,41.6l53.9,-90.9l-126.6,-2.5l72.7,93.4z"/>
  <path opacity="0.25" id="svg_54" fill="rgb(105,30,111)" d="m1383.3,214.8l-230.9,224.7l104.4,90.6l126.5,-315.3z"/>
  <path opacity="0.25" id="svg_55" fill="rgb(153,117,162)" d="m145.5,584.6l76.8,31.2l24.2,-122.9l-101,91.7z"/>
  <path opacity="0.25" id="svg_56" fill="rgb(158,123,158)" d="m246.5,492.9l-24.2,122.9l143.6,62.2l-119.4,-185.1z"/>
  <path opacity="0.25" id="svg_57" fill="rgb(102,6,99)" d="m1458.8,455.1l-75.5,-240.3l-126.5,315.3l202,-75z"/>
  <path opacity="0.25" id="svg_58" fill="rgb(167,127,169)" d="m1432,-54.6l-177.3,5.3l33.1,109l144.2,-114.3z"/>
  <path opacity="0.25" id="svg_59" fill="rgb(188,138,185)" d="m1287.8,59.7l-33.1,-109l-53.9,90.9l87,18.1z"/>
  <path opacity="0.25" id="svg_60" fill="rgb(194,164,208)" d="m1032.5,-249.1l-205.9,-34.2l149.9,209.5l56,-175.3z"/>
  <path opacity="0.25" id="svg_61" fill="rgb(174,136,188)" d="m53.2,235.2l96.7,165.9l129.8,-173.7l-226.5,7.8z"/>
  <path opacity="0.25" id="svg_62" fill="rgb(193,162,207)" d="m1032.5,-249.1l-56,175.3l151.6,22l-95.6,-197.3z"/>
  <path opacity="0.25" id="svg_63" fill="rgb(204,220,236)" d="m574.5,-174.7l252.1,-108.6l-297.1,114.4l45,-5.8z"/>
  <path opacity="0.25" id="svg_64" fill="rgb(184,144,194)" d="m1170.6,-208.4l-138.1,-40.7l95.6,197.3l42.5,-156.6z"/>
  <path opacity="0.25" id="svg_65" fill="rgb(240,247,250)" d="m243.2,-159.9l-39.7,177.5l203,-51.3l-163.3,-126.2z"/>
  <path opacity="0.25" id="svg_66" fill="rgb(172,168,209)" d="m242.7,119.9l-189.5,115.3l226.5,-7.8l-37,-107.5z"/>
  <path opacity="0.25" id="svg_67" fill="rgb(176,132,174)" d="m149.9,401.1l-4.4,183.5l101,-91.7l-96.6,-91.8z"/>
  <path opacity="0.25" id="svg_68" fill="rgb(166,126,168)" d="m222.3,615.8l-378.1,71.6l521.7,-9.4l-143.6,-62.2z"/>
  <path opacity="0.25" id="svg_69" fill="rgb(189,151,200)" d="m1254.7,-49.3l-84.1,-159.1l-42.5,156.6l126.6,2.5z"/>
  <path opacity="0.25" id="svg_70" fill="rgb(128,48,137)" d="m1271.3,610.9l187.5,-155.8l-202,75l14.5,80.8z"/>
  <path opacity="0.25" id="svg_71" fill="rgb(137,69,155)" d="m1458.8,455.1l40.6,-234.4l-116.1,-5.9l75.5,240.3z"/>
  <path opacity="0.25" id="svg_72" fill="rgb(139,98,160)" d="m1383.3,214.8l108,-63.7l-203.5,-91.4l95.5,155.1z"/>
  <path opacity="0.25" id="svg_73" fill="rgb(188,160,206)" d="m1254.7,-49.3l13.9,-215.8l-98,56.7l84.1,159.1z"/>
  <path opacity="0.25" id="svg_74" fill="rgb(175,191,220)" d="m42.2,179.6l11,55.6l189.5,-115.3l-200.5,59.7z"/>
  <path opacity="0.25" id="svg_75" fill="rgb(192,142,189)" d="m149.9,401.1l-208.8,102.2l204.4,81.3l4.4,-183.5z"/>
  <path opacity="0.25" id="svg_76" fill="rgb(110,63,126)" d="m1499.4,220.7l-8.1,-69.6l-108,63.7l116.1,5.9z"/>
  <path opacity="0.25" id="svg_77" fill="rgb(233,242,248)" d="m49.1,-321.1l194.1,161.2l286.3,-9l-480.4,-152.2z"/>
  <path opacity="0.25" id="svg_78" fill="rgb(220,232,242)" d="m529.5,-168.9l-286.3,9l163.3,126.2l123,-135.2z"/>
  <path opacity="0.25" id="svg_79" fill="rgb(175,199,224)" d="m203.5,17.6l-161.3,162l200.5,-59.7l-39.2,-102.3z"/>
  <path opacity="0.25" id="svg_80" fill="rgb(232,241,247)" d="m26.2,-50.6l16,230.2l161.3,-162l-177.3,-68.2z"/>
  <path opacity="0.25" id="svg_81" fill="rgb(167,128,166)" d="m1491.3,151.1l-59.3,-205.7l-144.2,114.3l203.5,91.4z"/>
  <path opacity="0.25" id="svg_82" fill="rgb(193,159,206)" d="m1432,-54.6l-163.4,-210.5l-13.9,215.8l177.3,-5.3z"/>
  <path opacity="0.25" id="svg_83" fill="rgb(193,157,204)" d="m1170.6,-208.4l98,-56.7l-236.1,16l138.1,40.7z"/>
  <path opacity="0.25" id="svg_84" fill="rgb(194,198,225)" d="m1032.5,-249.1l236.1,-16l-442,-18.2l205.9,34.2z"/>
  <path opacity="0.25" id="svg_85" fill="rgb(77,0,75)" d="m1703.6,721.3l-136.3,-97.1l-296,-13.3l432.3,110.4z"/>
  <path opacity="0.25" id="svg_86" fill="rgb(126,19,122)" d="m1271.3,610.9l296,13.3l-108.5,-169.1l-187.5,155.8z"/>
  <path opacity="0.25" id="svg_87" fill="rgb(107,25,110)" d="m1458.8,455.1l160.6,-179.5l-120,-54.9l-40.6,234.4z"/>
  <path opacity="0.25" id="svg_88" fill="rgb(138,80,157)" d="m1499.4,220.7l120,54.9l-128.1,-124.5l8.1,69.6z"/>
  <path opacity="0.25" id="svg_89" fill="rgb(114,10,110)" d="m1703.6,721.3l-432.3,-110.4l-142.3,54.4l574.6,56z"/>
  <path opacity="0.25" id="svg_90" fill="rgb(95,4,92)" d="m1716.3,402.6l-96.9,-127l-160.6,179.5l257.5,-52.5z"/>
  <path opacity="0.25" id="svg_91" fill="rgb(143,113,152)" d="m1491.3,151.1l234.4,-166.4l-293.7,-39.3l59.3,205.7z"/>
  <path opacity="0.25" id="svg_92" fill="rgb(194,166,209)" d="m-110.9,357.7l260.8,43.4l-96.7,-165.9l-164.1,122.5z"/>
  <path opacity="0.25" id="svg_93" fill="rgb(162,126,160)" d="m-110.9,357.7l52,145.6l208.8,-102.2l-260.8,-43.4z"/>
  <path opacity="0.25" id="svg_94" fill="rgb(162,126,160)" d="m145.5,584.6l-301.3,102.8l378.1,-71.6l-76.8,-31.2z"/>
  <path opacity="0.25" id="svg_95" fill="rgb(231,241,247)" d="m243.2,-159.9l-217,109.3l177.3,68.2l39.7,-177.5z"/>
  <path opacity="0.25" id="svg_96" fill="rgb(184,157,204)" d="m-128,164.2l17.1,193.5l164.1,-122.5l-181.2,-71z"/>
  <path opacity="0.25" id="svg_97" fill="rgb(191,186,219)" d="m-128,164.2l181.2,71l-11,-55.6l-170.2,-15.4z"/>
  <path opacity="0.25" id="svg_98" fill="rgb(204,220,236)" d="m26.2,-50.6l-154.2,214.8l170.2,15.4l-16,-230.2z"/>
  <path opacity="0.25" id="svg_99" fill="rgb(122,24,122)" d="m1716.3,402.6l-18.9,-210.5l-78,83.5l96.9,127z"/>
  <path opacity="0.25" id="svg_100" fill="rgb(139,92,160)" d="m1619.4,275.6l78,-83.5l-206.1,-41l128.1,124.5z"/>
  <path opacity="0.25" id="svg_101" fill="rgb(184,137,180)" d="m1432,-54.6l44.7,-230.6l-208.1,20.1l163.4,210.5z"/>
  <path opacity="0.25" id="svg_102" fill="rgb(125,14,121)" d="m1567.3,624.2l149,-221.6l-257.5,52.5l108.5,169.1z"/>
  <path opacity="0.25" id="svg_103" fill="rgb(160,125,159)" d="m1598.1,-245.3l-121.4,-39.9l-44.7,230.6l166.1,-190.7z"/>
  <path opacity="0.25" id="svg_104" fill="rgb(192,150,198)" d="m1268.6,-265.1l208.1,-20.1l-650.1,1.9l442,18.2z"/>
  <path opacity="0.25" id="svg_105" fill="rgb(159,123,162)" d="m-294.9,316.5l108.8,72.7l75.2,-31.5l-184,-41.2z"/>
  <path opacity="0.25" id="svg_106" fill="rgb(157,123,158)" d="m-110.9,357.7l-75.2,31.5l127.2,114.1l-52,-145.6z"/>
  <path opacity="0.25" id="svg_107" fill="rgb(241,248,251)" d="m26.2,-50.6l-117.2,-48.5l-37,263.3l154.2,-214.8z"/>
  <path opacity="0.25" id="svg_108" fill="rgb(190,168,210)" d="m-128,164.2l-166.9,152.3l184,41.2l-17.1,-193.5z"/>
  <path opacity="0.25" id="svg_109" fill="rgb(244,250,252)" d="m1.9,-316.9l-92.9,217.8l117.2,48.5l-24.3,-266.3z"/>
  <path opacity="0.25" id="svg_110" fill="rgb(236,244,249)" d="m49.1,-321.1l-22.9,270.5l217,-109.3l-194.1,-161.2z"/>
  <path opacity="0.25" id="svg_111" fill="rgb(199,212,232)" d="m1476.7,-285.2l-1427.6,-35.9l777.5,37.8l650.1,-1.9z"/>
  <path opacity="0.25" id="svg_112" fill="rgb(202,219,235)" d="m826.6,-283.3l-777.5,-37.8l480.4,152.2l297.1,-114.4z"/>
  <path opacity="0.25" id="svg_113" fill="rgb(158,124,159)" d="m-265.6,639.7l109.8,47.7l96.9,-184.1l-206.7,136.4z"/>
  <path opacity="0.25" id="svg_114" fill="rgb(162,126,160)" d="m-58.9,503.3l-96.9,184.1l301.3,-102.8l-204.4,-81.3z"/>
  <path opacity="0.25" id="svg_115" fill="rgb(138,109,150)" d="m365.9,678l-521.7,9.4l1055.5,7.4l-533.8,-16.8z"/>
  <path opacity="0.25" id="svg_116" fill="rgb(95,4,92)" d="m899.7,694.8l803.9,26.5l-574.6,-56l-229.3,29.5z"/>
  <path opacity="0.25" id="svg_117" fill="rgb(87,2,84)" d="m1567.3,624.2l136.3,97.1l12.7,-318.7l-149,221.6z"/>
  <path opacity="0.25" id="svg_118" fill="rgb(115,86,137)" d="m-155.8,687.4l1859.4,33.9l-803.9,-26.5l-1055.5,-7.4z"/>
  <path opacity="0.25" id="svg_119" fill="rgb(185,138,187)" d="m1725.7,-15.3l-127.6,-230l-166.1,190.7l293.7,39.3z"/>
  <path opacity="0.25" id="svg_120" fill="rgb(171,128,181)" d="m1697.4,192.1l28.3,-207.4l-234.4,166.4l206.1,41z"/>
  <path opacity="0.25" id="svg_121" fill="rgb(147,116,154)" d="m1937.3,134.1l-211.6,-149.4l-28.3,207.4l239.9,-58z"/>
  <path opacity="0.25" id="svg_122" fill="rgb(238,246,250)" d="m-91,-99.1l-118.6,213.5l81.6,49.8l37,-263.3z"/>
  <path opacity="0.25" id="svg_123" fill="rgb(240,247,250)" d="m49.1,-321.1l-47.2,4.2l24.3,266.3l22.9,-270.5z"/>
  <path opacity="0.25" id="svg_124" fill="rgb(233,242,247)" d="m-91,-99.1l-121.7,10l3.1,203.5l118.6,-213.5z"/>
  <path opacity="0.25" id="svg_125" fill="rgb(201,216,234)" d="m-209.6,114.4l-85.3,202.1l166.9,-152.3l-81.6,-49.8z"/>
  <path opacity="0.25" id="svg_126" fill="rgb(152,120,156)" d="m-186.1,389.2l-79.5,250.5l206.7,-136.4l-127.2,-114.1z"/>
  <path opacity="0.25" id="svg_127" fill="rgb(79,0,77)" d="m1886.8,387l-32.3,-73.5l-138.2,89.1l170.5,-15.6z"/>
  <path opacity="0.25" id="svg_128" fill="rgb(103,11,101)" d="m1716.3,402.6l138.2,-89.1l-157.1,-121.4l18.9,210.5z"/>
  <path opacity="0.25" id="svg_129" fill="rgb(235,244,248)" d="m-256.9,-320.2l44.2,231.1l121.7,-10l-165.9,-221.1z"/>
  <path opacity="0.25" id="svg_130" fill="rgb(233,242,247)" d="m-209.6,114.4l-3.1,-203.5l-82.2,405.6l85.3,-202.1z"/>
  <path opacity="0.25" id="svg_131" fill="rgb(157,123,158)" d="m-294.9,316.5l29.3,323.2l79.5,-250.5l-108.8,-72.7z"/>
  <path opacity="0.25" id="svg_132" fill="rgb(77,0,75)" d="m1929,622.1l-42.2,-235.1l-170.5,15.6l212.7,219.5z"/>
  <path opacity="0.25" id="svg_133" fill="rgb(111,58,125)" d="m1854.5,313.5l82.8,-179.4l-239.9,58l157.1,121.4z"/>
  <path opacity="0.25" id="svg_134" fill="rgb(138,83,156)" d="m1886.8,387l50.5,-252.9l-82.8,179.4l32.3,73.5z"/>
  <path opacity="0.25" id="svg_135" fill="rgb(192,143,190)" d="m1725.7,-15.3l134.9,-203.2l-262.5,-26.8l127.6,230z"/>
  <path opacity="0.25" id="svg_136" fill="rgb(113,9,109)" d="m1703.6,721.3l225.4,-99.2l-212.7,-219.5l-12.7,318.7z"/>
  <path opacity="0.25" id="svg_137" fill="rgb(112,9,108)" d="m1886.8,387l42.2,235.1l8.3,-488l-50.5,252.9z"/>
  <path opacity="0.25" id="svg_138" fill="rgb(155,121,157)" d="m1937.3,134.1l-58.4,-219.3l-153.2,69.9l211.6,149.4z"/>
  <path opacity="0.25" id="svg_139" fill="rgb(162,126,160)" d="m1937.3,134.1l-76.7,-352.6l18.3,133.3l58.4,219.3z"/>
  <path opacity="0.25" id="svg_140" fill="rgb(172,131,169)" d="m1878.9,-85.2l-18.3,-133.3l-134.9,203.2l153.2,-69.9z"/>
  <path opacity="0.25" id="svg_141" fill="rgb(187,138,183)" d="m1598.1,-245.3l262.5,26.8l-383.9,-66.7l121.4,39.9z"/>
  <path opacity="0.25" id="svg_142" fill="rgb(239,246,250)" d="m-212.7,-89.1l-44.2,-231.1l-38,636.7l82.2,-405.6z"/>
  <path opacity="0.25" id="svg_143" fill="rgb(247,252,253)" d="m1.9,-316.9l-258.8,-3.3l165.9,221.1l92.9,-217.8z"/>
  <path opacity="0.25" id="svg_144" fill="rgb(247,252,253)" d="m49.1,-321.1l-306,0.9l258.8,3.3l47.2,-4.2z"/>
 </g>
</svg>