<svg width="1920" height="1080" xmlns="http://www.w3.org/2000/svg">

 <g>
  <title>background</title>
  <rect fill="none" id="canvas_background" height="602" width="802" y="-1" x="-1"/>
 </g>
 <g>
  <title>Layer 1</title>
  <path opacity="0.5" id="svg_1" fill="rgb(153,172,210)" d="m961,462.1l25,-101.9l-78.3,-49.7l53.3,151.6z"/>
  <path opacity="0.5" id="svg_2" fill="rgb(150,171,209)" d="m907.7,310.5l-52,170.3l105.3,-18.7l-53.3,-151.6z"/>
  <path opacity="0.5" id="svg_3" fill="rgb(154,179,213)" d="m736.3,303.4l53.2,197.5l66.2,-20.1l-119.4,-177.4z"/>
  <path opacity="0.5" id="svg_4" fill="rgb(145,160,203)" d="m855.7,480.8l4.4,90.7l100.9,-109.4l-105.3,18.7z"/>
  <path opacity="0.5" id="svg_5" fill="rgb(146,163,205)" d="m789.5,500.9l70.6,70.6l-4.4,-90.7l-66.2,20.1z"/>
  <path opacity="0.5" id="svg_6" fill="rgb(159,182,215)" d="m907.7,310.5l-171.4,-7.1l119.4,177.4l52,-170.3z"/>
  <path opacity="0.5" id="svg_7" fill="rgb(172,186,217)" d="m1056.7,154.1l-200.6,42.7l51.6,113.7l149,-156.4z"/>
  <path opacity="0.5" id="svg_8" fill="rgb(170,190,219)" d="m907.7,310.5l-51.6,-113.7l-119.8,106.6l171.4,7.1z"/>
  <path opacity="0.5" id="svg_9" fill="rgb(175,197,223)" d="m856.1,196.8l-155.5,60.9l35.7,45.7l119.8,-106.6z"/>
  <path opacity="0.5" id="svg_10" fill="rgb(150,170,208)" d="m624.6,508.2l105.3,91.6l59.6,-98.9l-164.9,7.3z"/>
  <path opacity="0.5" id="svg_11" fill="rgb(141,149,197)" d="m860.1,571.5l141.9,70l-41,-179.4l-100.9,109.4z"/>
  <path opacity="0.5" id="svg_12" fill="rgb(147,157,202)" d="m961,462.1l219.4,35.1l-194.4,-137l-25,101.9z"/>
  <path opacity="0.5" id="svg_13" fill="rgb(158,183,216)" d="m624.6,508.2l164.9,-7.3l-183.4,-150.4l18.5,157.7z"/>
  <path opacity="0.5" id="svg_14" fill="rgb(147,160,204)" d="m789.5,500.9l-59.6,98.9l130.2,-28.3l-70.6,-70.6z"/>
  <path opacity="0.5" id="svg_15" fill="rgb(142,133,190)" d="m860.1,571.5l74.8,195.9l67.1,-125.9l-141.9,-70z"/>
  <path opacity="0.5" id="svg_16" fill="rgb(163,166,207)" d="m1212.4,387.6l-155.7,-233.5l-70.7,206.1l226.4,27.4z"/>
  <path opacity="0.5" id="svg_17" fill="rgb(165,178,213)" d="m986,360.2l70.7,-206.1l-149,156.4l78.3,49.7z"/>
  <path opacity="0.5" id="svg_18" fill="rgb(142,140,193)" d="m1152.6,607l27.8,-109.8l-219.4,-35.1l191.6,144.9z"/>
  <path opacity="0.5" id="svg_19" fill="rgb(150,153,200)" d="m1180.4,497.2l32,-109.6l-226.4,-27.4l194.4,137z"/>
  <path opacity="0.5" id="svg_20" fill="rgb(161,190,219)" d="m606.1,350.5l183.4,150.4l-53.2,-197.5l-130.2,47.1z"/>
  <path opacity="0.5" id="svg_21" fill="rgb(173,198,223)" d="m700.6,257.7l-94.5,92.8l130.2,-47.1l-35.7,-45.7z"/>
  <path opacity="0.5" id="svg_22" fill="rgb(181,192,221)" d="m1056.7,154.1l-104.4,-69.2l-96.2,111.9l200.6,-42.7z"/>
  <path opacity="0.5" id="svg_23" fill="rgb(188,210,230)" d="m791.7,57.5l-167.4,126.6l76.3,73.6l91.1,-200.2z"/>
  <path opacity="0.5" id="svg_24" fill="rgb(141,138,192)" d="m1002,641.5l150.6,-34.5l-191.6,-144.9l41,179.4z"/>
  <path opacity="0.5" id="svg_25" fill="rgb(154,146,197)" d="m1270.8,432l-12.7,-111.7l-45.7,67.3l58.4,44.4z"/>
  <path opacity="0.5" id="svg_26" fill="rgb(141,123,185)" d="m1002,641.5l58.6,44.6l92,-79.1l-150.6,34.5z"/>
  <path opacity="0.5" id="svg_27" fill="rgb(141,122,184)" d="m934.9,767.4l125.7,-81.3l-58.6,-44.6l-67.1,125.9z"/>
  <path opacity="0.5" id="svg_28" fill="rgb(186,191,221)" d="m1056.7,154.1l-74.3,-104.7l-30.1,35.5l104.4,69.2z"/>
  <path opacity="0.5" id="svg_29" fill="rgb(184,203,227)" d="m791.7,57.5l-91.1,200.2l155.5,-60.9l-64.4,-139.3z"/>
  <path opacity="0.5" id="svg_30" fill="rgb(188,201,226)" d="m791.7,57.5l64.4,139.3l96.2,-111.9l-160.6,-27.4z"/>
  <path opacity="0.5" id="svg_31" fill="rgb(181,204,226)" d="m700.6,257.7l-76.3,-73.6l-18.2,166.4l94.5,-92.8z"/>
  <path opacity="0.5" id="svg_32" fill="rgb(148,141,194)" d="m1270.8,432l-58.4,-44.4l-32,109.6l90.4,-65.2z"/>
  <path opacity="0.5" id="svg_33" fill="rgb(164,159,204)" d="m1212.4,387.6l45.7,-67.3l-201.4,-166.2l155.7,233.5z"/>
  <path opacity="0.5" id="svg_34" fill="rgb(186,186,219)" d="m1056.7,154.1l38.4,-69.4l-112.7,-35.3l74.3,104.7z"/>
  <path opacity="0.5" id="svg_35" fill="rgb(194,204,227)" d="m930.5,-62.8l-138.8,120.3l160.6,27.4l-21.8,-147.7z"/>
  <path opacity="0.5" id="svg_36" fill="rgb(183,179,215)" d="m1186.6,141.4l-91.5,-56.7l-38.4,69.4l129.9,-12.7z"/>
  <path opacity="0.5" id="svg_37" fill="rgb(142,127,187)" d="m1331,626.1l-60.2,-194.1l-90.4,65.2l150.6,128.9z"/>
  <path opacity="0.5" id="svg_38" fill="rgb(181,204,226)" d="m624.3,184.1l-75.4,139.8l57.2,26.6l18.2,-166.4z"/>
  <path opacity="0.5" id="svg_39" fill="rgb(165,188,218)" d="m606.1,350.5l-126.4,153.4l144.9,4.3l-18.5,-157.7z"/>
  <path opacity="0.5" id="svg_40" fill="rgb(145,131,189)" d="m789,796.6l145.9,-29.2l-74.8,-195.9l-71.1,225.1z"/>
  <path opacity="0.5" id="svg_41" fill="rgb(174,167,208)" d="m1258.1,320.3l-71.5,-178.9l-129.9,12.7l201.4,166.2z"/>
  <path opacity="0.5" id="svg_42" fill="rgb(141,117,182)" d="m1060.6,686.1l102.8,-4.8l-10.8,-74.3l-92,79.1z"/>
  <path opacity="0.5" id="svg_43" fill="rgb(141,121,184)" d="m1152.6,607l178.4,19.1l-150.6,-128.9l-27.8,109.8z"/>
  <path opacity="0.5" id="svg_44" fill="rgb(140,105,176)" d="m1171,829l-7.6,-147.7l-102.8,4.8l110.4,142.9z"/>
  <path opacity="0.5" id="svg_45" fill="rgb(154,163,205)" d="m624.6,508.2l-19.2,163.6l124.5,-72l-105.3,-91.6z"/>
  <path opacity="0.5" id="svg_46" fill="rgb(148,145,196)" d="m729.9,599.8l59.1,196.8l71.1,-225.1l-130.2,28.3z"/>
  <path opacity="0.5" id="svg_47" fill="rgb(161,164,206)" d="m595.7,677.7l9.7,-5.9l-125.7,-167.9l116,173.8z"/>
  <path opacity="0.5" id="svg_48" fill="rgb(151,146,197)" d="m605.4,671.8l183.6,124.8l-59.1,-196.8l-124.5,72z"/>
  <path opacity="0.5" id="svg_49" fill="rgb(160,172,210)" d="m479.7,503.9l125.7,167.9l19.2,-163.6l-144.9,-4.3z"/>
  <path opacity="0.5" id="svg_50" fill="rgb(156,141,194)" d="m605.4,671.8l-53,96l236.6,28.8l-183.6,-124.8z"/>
  <path opacity="0.5" id="svg_51" fill="rgb(168,151,200)" d="m1368.8,242.5l-80.6,-38.7l-30.1,116.5l110.7,-77.8z"/>
  <path opacity="0.5" id="svg_52" fill="rgb(172,159,204)" d="m1258.1,320.3l30.1,-116.5l-101.6,-62.4l71.5,178.9z"/>
  <path opacity="0.5" id="svg_53" fill="rgb(190,188,219)" d="m1117.9,-9.9l-135.5,59.3l112.7,35.3l22.8,-94.6z"/>
  <path opacity="0.5" id="svg_54" fill="rgb(193,193,222)" d="m1117.9,-9.9l-129.7,-12.5l-5.8,71.8l135.5,-59.3z"/>
  <path opacity="0.5" id="svg_55" fill="rgb(192,199,225)" d="m982.4,49.4l-51.9,-112.2l21.8,147.7l30.1,-35.5z"/>
  <path opacity="0.5" id="svg_56" fill="rgb(190,180,216)" d="m1117.9,-9.9l-22.8,94.6l138.3,-29.9l-115.5,-64.7z"/>
  <path opacity="0.5" id="svg_57" fill="rgb(172,197,223)" d="m548.9,323.9l-69.2,180l126.4,-153.4l-57.2,-26.6z"/>
  <path opacity="0.5" id="svg_58" fill="rgb(203,220,235)" d="m454.8,26.7l39.4,195.9l130.1,-38.5l-169.5,-157.4z"/>
  <path opacity="0.5" id="svg_59" fill="rgb(189,210,229)" d="m624.3,184.1l-130.1,38.5l54.7,101.3l75.4,-139.8z"/>
  <path opacity="0.5" id="svg_60" fill="rgb(175,199,224)" d="m548.9,323.9l-174.5,80.6l105.3,99.4l69.2,-180z"/>
  <path opacity="0.5" id="svg_61" fill="rgb(186,175,213)" d="m1233.4,54.8l-138.3,29.9l91.5,56.7l46.8,-86.6z"/>
  <path opacity="0.5" id="svg_62" fill="rgb(194,201,226)" d="m907.9,-173.5l22.6,110.7l48.4,-156.8l-71,46.1z"/>
  <path opacity="0.5" id="svg_63" fill="rgb(194,199,225)" d="m988.2,-22.4l-57.7,-40.4l51.9,112.2l5.8,-71.8z"/>
  <path opacity="0.5" id="svg_64" fill="rgb(198,216,234)" d="m791.7,57.5l-161.4,-37.2l-6,163.8l167.4,-126.6z"/>
  <path opacity="0.5" id="svg_65" fill="rgb(203,220,236)" d="m661.1,-25.3l-30.8,45.6l161.4,37.2l-130.6,-82.8z"/>
  <path opacity="0.5" id="svg_66" fill="rgb(183,167,209)" d="m1288.2,203.8l-54.8,-149l-46.8,86.6l101.6,62.4z"/>
  <path opacity="0.5" id="svg_67" fill="rgb(150,132,189)" d="m1430.4,467.6l-48,-100.5l-111.6,64.9l159.6,35.6z"/>
  <path opacity="0.5" id="svg_68" fill="rgb(155,142,194)" d="m1270.8,432l111.6,-64.9l-124.3,-46.8l12.7,111.7z"/>
  <path opacity="0.5" id="svg_69" fill="rgb(186,162,206)" d="m1288.2,203.8l187.1,-193.6l-241.9,44.6l54.8,149z"/>
  <path opacity="0.5" id="svg_70" fill="rgb(140,99,173)" d="m1253.9,792.6l77.1,-166.5l-167.6,55.2l90.5,111.3z"/>
  <path opacity="0.5" id="svg_71" fill="rgb(140,112,179)" d="m1163.4,681.3l167.6,-55.2l-178.4,-19.1l10.8,74.3z"/>
  <path opacity="0.5" id="svg_72" fill="rgb(162,144,196)" d="m1382.4,367.1l-13.6,-124.6l-110.7,77.8l124.3,46.8z"/>
  <path opacity="0.5" id="svg_73" fill="rgb(202,218,235)" d="m777,-82l-115.9,56.7l130.6,82.8l-14.7,-139.5z"/>
  <path opacity="0.5" id="svg_74" fill="rgb(140,104,173)" d="m918,893.5l154.8,-32.6l-137.9,-93.5l-16.9,126.1z"/>
  <path opacity="0.5" id="svg_75" fill="rgb(140,109,178)" d="m934.9,767.4l137.9,93.5l-12.2,-174.8l-125.7,81.3z"/>
  <path opacity="0.5" id="svg_76" fill="rgb(198,210,231)" d="m930.5,-62.8l-153.5,-19.2l14.7,139.5l138.8,-120.3z"/>
  <path opacity="0.5" id="svg_77" fill="rgb(146,114,177)" d="m757.4,891.6l160.6,1.9l-129,-96.9l-31.6,95z"/>
  <path opacity="0.5" id="svg_78" fill="rgb(144,114,180)" d="m789,796.6l129,96.9l16.9,-126.1l-145.9,29.2z"/>
  <path opacity="0.5" id="svg_79" fill="rgb(140,99,173)" d="m1072.8,860.9l98.2,-31.9l-110.4,-142.9l12.2,174.8z"/>
  <path opacity="0.5" id="svg_80" fill="rgb(163,152,200)" d="m465.1,658.2l87.3,109.6l43.3,-90.1l-130.6,-19.5z"/>
  <path opacity="0.5" id="svg_81" fill="rgb(160,149,199)" d="m595.7,677.7l-43.3,90.1l53,-96l-9.7,5.9z"/>
  <path opacity="0.5" id="svg_82" fill="rgb(164,167,207)" d="m479.7,503.9l-14.6,154.3l130.6,19.5l-116,-173.8z"/>
  <path opacity="0.5" id="svg_83" fill="rgb(172,171,210)" d="m388.7,685.1l76.4,-26.9l-141.8,-128.1l65.4,155z"/>
  <path opacity="0.5" id="svg_84" fill="rgb(152,128,187)" d="m552.4,767.8l205,123.8l31.6,-95l-236.6,-28.8z"/>
  <path opacity="0.5" id="svg_85" fill="rgb(139,94,170)" d="m1171,829l82.9,-36.4l-90.5,-111.3l7.6,147.7z"/>
  <path opacity="0.5" id="svg_86" fill="rgb(143,121,184)" d="m1331,626.1l99.4,-158.5l-159.6,-35.6l60.2,194.1z"/>
  <path opacity="0.5" id="svg_87" fill="rgb(159,133,190)" d="m1382.4,367.1l213.4,24.2l-227,-148.8l13.6,124.6z"/>
  <path opacity="0.5" id="svg_88" fill="rgb(140,107,177)" d="m1384.8,647.9l45.6,-180.3l-99.4,158.5l53.8,21.8z"/>
  <path opacity="0.5" id="svg_89" fill="rgb(186,207,228)" d="m494.2,222.6l-119.8,181.9l174.5,-80.6l-54.7,-101.3z"/>
  <path opacity="0.5" id="svg_90" fill="rgb(139,95,171)" d="m1253.9,792.6l130.9,-144.7l-53.8,-21.8l-77.1,166.5z"/>
  <path opacity="0.5" id="svg_91" fill="rgb(210,225,238)" d="m454.8,26.7l-56.9,129.8l96.3,66.1l-39.4,-195.9z"/>
  <path opacity="0.5" id="svg_92" fill="rgb(195,214,232)" d="m276.8,268.1l-4.6,57.5l102.2,78.9l-97.6,-136.4z"/>
  <path opacity="0.5" id="svg_93" fill="rgb(206,222,237)" d="m454.8,26.7l169.5,157.4l6,-163.8l-175.5,6.4z"/>
  <path opacity="0.5" id="svg_94" fill="rgb(194,199,225)" d="m978.9,-219.6l-48.4,156.8l57.7,40.4l-9.3,-197.2z"/>
  <path opacity="0.5" id="svg_95" fill="rgb(197,207,229)" d="m930.5,-62.8l-22.6,-110.7l-130.9,91.5l153.5,19.2z"/>
  <path opacity="0.5" id="svg_96" fill="rgb(213,227,239)" d="m431.1,-57.1l199.2,77.4l30.8,-45.6l-230,-31.8z"/>
  <path opacity="0.5" id="svg_97" fill="rgb(194,193,222)" d="m978.9,-219.6l9.3,197.2l129.7,12.5l-139,-209.7z"/>
  <path opacity="0.5" id="svg_98" fill="rgb(140,94,164)" d="m918,893.5l72.1,71l82.7,-103.6l-154.8,32.6z"/>
  <path opacity="0.5" id="svg_99" fill="rgb(137,76,155)" d="m1135,985.5l116,-79.2l-80,-77.3l-36,156.5z"/>
  <path opacity="0.5" id="svg_100" fill="rgb(138,80,162)" d="m1171,829l80,77.3l2.9,-113.7l-82.9,36.4z"/>
  <path opacity="0.5" id="svg_101" fill="rgb(134,91,155)" d="m894.6,1076.9l95.5,-112.4l-72.1,-71l-23.4,183.4z"/>
  <path opacity="0.5" id="svg_102" fill="rgb(154,123,182)" d="m552.4,767.8l137.9,170.1l67.1,-46.3l-205,-123.8z"/>
  <path opacity="0.5" id="svg_103" fill="rgb(145,103,166)" d="m757.4,891.6l47.7,155.3l112.9,-153.4l-160.6,-1.9z"/>
  <path opacity="0.5" id="svg_104" fill="rgb(166,145,197)" d="m388.7,685.1l139.6,147.9l24.1,-65.2l-163.7,-82.7z"/>
  <path opacity="0.5" id="svg_105" fill="rgb(193,167,209)" d="m1475.3,10.2l-203.1,-68.6l-38.8,113.2l241.9,-44.6z"/>
  <path opacity="0.5" id="svg_106" fill="rgb(194,177,215)" d="m1233.4,54.8l38.8,-113.2l-154.3,48.5l115.5,64.7z"/>
  <path opacity="0.5" id="svg_107" fill="rgb(217,230,241)" d="m431.1,-57.1l23.7,83.8l175.5,-6.4l-199.2,-77.4z"/>
  <path opacity="0.5" id="svg_108" fill="rgb(205,221,236)" d="m645.6,-234.4l15.5,209.1l115.9,-56.7l-131.4,-152.4z"/>
  <path opacity="0.5" id="svg_109" fill="rgb(159,129,186)" d="m528.3,833l162,104.9l-137.9,-170.1l-24.1,65.2z"/>
  <path opacity="0.5" id="svg_110" fill="rgb(170,179,214)" d="m323.3,530.1l141.8,128.1l14.6,-154.3l-156.4,26.2z"/>
  <path opacity="0.5" id="svg_111" fill="rgb(167,155,202)" d="m465.1,658.2l-76.4,26.9l163.7,82.7l-87.3,-109.6z"/>
  <path opacity="0.5" id="svg_112" fill="rgb(182,198,224)" d="m216,502l107.3,28.1l51.1,-125.6l-158.4,97.5z"/>
  <path opacity="0.5" id="svg_113" fill="rgb(176,193,221)" d="m374.4,404.5l-51.1,125.6l156.4,-26.2l-105.3,-99.4z"/>
  <path opacity="0.5" id="svg_114" fill="rgb(196,205,228)" d="m978.9,-219.6l-174.6,13l103.6,33.1l71,-46.1z"/>
  <path opacity="0.5" id="svg_115" fill="rgb(199,210,231)" d="m907.9,-173.5l-103.6,-33.1l-27.3,124.6l130.9,-91.5z"/>
  <path opacity="0.5" id="svg_116" fill="rgb(138,83,160)" d="m1135,985.5l36,-156.5l-98.2,31.9l62.2,124.6z"/>
  <path opacity="0.5" id="svg_117" fill="rgb(138,81,164)" d="m1253.9,792.6l111,80.1l19.9,-224.8l-130.9,144.7z"/>
  <path opacity="0.5" id="svg_118" fill="rgb(194,189,220)" d="m1139.4,-236l-160.5,16.4l139,209.7l21.5,-226.1z"/>
  <path opacity="0.5" id="svg_119" fill="rgb(144,112,177)" d="m1526,575.3l9.8,-140.7l-105.4,33l95.6,107.7z"/>
  <path opacity="0.5" id="svg_120" fill="rgb(149,125,185)" d="m1430.4,467.6l105.4,-33l-153.4,-67.5l48,100.5z"/>
  <path opacity="0.5" id="svg_121" fill="rgb(180,154,202)" d="m1368.8,242.5l106.5,-232.3l-187.1,193.6l80.6,38.7z"/>
  <path opacity="0.5" id="svg_122" fill="rgb(140,105,175)" d="m1526,575.3l-95.6,-107.7l-45.6,180.3l141.2,-72.6z"/>
  <path opacity="0.5" id="svg_123" fill="rgb(122,78,141)" d="m988,1134.8l147,-149.3l-144.9,-21l-2.1,170.3z"/>
  <path opacity="0.5" id="svg_124" fill="rgb(138,83,157)" d="m990.1,964.5l144.9,21l-62.2,-124.6l-82.7,103.6z"/>
  <path opacity="0.5" id="svg_125" fill="rgb(216,230,241)" d="m454.8,26.7l-124.7,99.5l67.8,30.3l56.9,-129.8z"/>
  <path opacity="0.5" id="svg_126" fill="rgb(194,214,232)" d="m276.8,268.1l97.6,136.4l119.8,-181.9l-217.4,45.5z"/>
  <path opacity="0.5" id="svg_127" fill="rgb(204,221,235)" d="m276.8,268.1l217.4,-45.5l-96.3,-66.1l-121.1,111.6z"/>
  <path opacity="0.5" id="svg_128" fill="rgb(139,87,166)" d="m1496.1,761.6l29.9,-186.3l-141.2,72.6l111.3,113.7z"/>
  <path opacity="0.5" id="svg_129" fill="rgb(212,226,239)" d="m330.1,126.2l-53.3,141.9l121.1,-111.6l-67.8,-30.3z"/>
  <path opacity="0.5" id="svg_130" fill="rgb(176,175,212)" d="m323.3,530.1l-26.8,98.5l92.2,56.5l-65.4,-155z"/>
  <path opacity="0.5" id="svg_131" fill="rgb(171,142,195)" d="m388.7,685.1l-92.5,237.2l232.1,-89.3l-139.6,-147.9z"/>
  <path opacity="0.5" id="svg_132" fill="rgb(180,182,216)" d="m211.6,612.7l84.9,15.9l26.8,-98.5l-111.7,82.6z"/>
  <path opacity="0.5" id="svg_133" fill="rgb(224,236,244)" d="m454.8,26.7l-159.1,-79.6l34.4,179.1l124.7,-99.5z"/>
  <path opacity="0.5" id="svg_134" fill="rgb(217,230,241)" d="m449.4,-146.2l-18.3,89.1l230,31.8l-211.7,-120.9z"/>
  <path opacity="0.5" id="svg_135" fill="rgb(141,107,161)" d="m613.8,994.1l191.3,52.8l-114.8,-109l-76.5,56.2z"/>
  <path opacity="0.5" id="svg_136" fill="rgb(146,108,166)" d="m690.3,937.9l114.8,109l-47.7,-155.3l-67.1,46.3z"/>
  <path opacity="0.5" id="svg_137" fill="rgb(136,64,150)" d="m1285.9,960.2l79,-87.5l-113.9,33.6l34.9,53.9z"/>
  <path opacity="0.5" id="svg_138" fill="rgb(137,73,157)" d="m1251,906.3l113.9,-33.6l-111,-80.1l-2.9,113.7z"/>
  <path opacity="0.5" id="svg_139" fill="rgb(139,109,154)" d="m572.9,1104.9l40.9,-110.8l-168.2,55.7l127.3,55.1z"/>
  <path opacity="0.5" id="svg_140" fill="rgb(157,119,176)" d="m528.3,833l85.5,161.1l76.5,-56.2l-162,-104.9z"/>
  <path opacity="0.5" id="svg_141" fill="rgb(194,181,217)" d="m1229.4,-203.5l-90,-32.5l-21.5,226.1l111.5,-193.6z"/>
  <path opacity="0.5" id="svg_142" fill="rgb(199,212,232)" d="m978.9,-219.6l-333.3,-14.8l158.7,27.8l174.6,-13z"/>
  <path opacity="0.5" id="svg_143" fill="rgb(194,168,210)" d="m1434.1,-181.7l-204.7,-21.8l42.8,145.1l161.9,-123.3z"/>
  <path opacity="0.5" id="svg_144" fill="rgb(194,177,215)" d="m1272.2,-58.4l-42.8,-145.1l-111.5,193.6l154.3,-48.5z"/>
  <path opacity="0.5" id="svg_145" fill="rgb(135,66,148)" d="m1135,985.5l150.9,-25.3l-34.9,-53.9l-116,79.2z"/>
  <path opacity="0.5" id="svg_146" fill="rgb(122,61,136)" d="m1269.9,1091.5l16,-131.3l-150.9,25.3l134.9,106z"/>
  <path opacity="0.5" id="svg_147" fill="rgb(115,87,137)" d="m914.3,1132.8l-19.7,-55.9l-84.3,49.8l104,6.1z"/>
  <path opacity="0.5" id="svg_148" fill="rgb(131,94,152)" d="m805.1,1046.9l89.5,30l23.4,-183.4l-112.9,153.4z"/>
  <path opacity="0.5" id="svg_149" fill="rgb(195,203,227)" d="m1139.4,-236l-493.8,1.6l333.3,14.8l160.5,-16.4z"/>
  <path opacity="0.5" id="svg_150" fill="rgb(202,218,235)" d="m804.3,-206.6l-158.7,-27.8l131.4,152.4l27.3,-124.6z"/>
  <path opacity="0.5" id="svg_151" fill="rgb(182,147,197)" d="m1605,159l-129.7,-148.8l-106.5,232.3l236.2,-83.5z"/>
  <path opacity="0.5" id="svg_152" fill="rgb(147,110,173)" d="m1659.3,533l-63.5,-141.7l-60,43.3l123.5,98.4z"/>
  <path opacity="0.5" id="svg_153" fill="rgb(152,124,183)" d="m1535.8,434.6l60,-43.3l-213.4,-24.2l153.4,67.5z"/>
  <path opacity="0.5" id="svg_154" fill="rgb(137,75,162)" d="m1364.9,872.7l131.2,-111.1l-111.3,-113.7l-19.9,224.8z"/>
  <path opacity="0.5" id="svg_155" fill="rgb(142,104,170)" d="m1526,575.3l133.3,-42.3l-123.5,-98.4l-9.8,140.7z"/>
  <path opacity="0.5" id="svg_156" fill="rgb(135,56,149)" d="m1562.3,784.8l-66.2,-23.2l86.1,132.1l-19.9,-108.9z"/>
  <path opacity="0.5" id="svg_157" fill="rgb(194,209,230)" d="m123.5,527.1l92.5,-25.1l-175.6,-187.2l83.1,212.3z"/>
  <path opacity="0.5" id="svg_158" fill="rgb(188,208,229)" d="m272.2,325.6l-56.2,176.4l158.4,-97.5l-102.2,-78.9z"/>
  <path opacity="0.5" id="svg_159" fill="rgb(193,153,200)" d="m1561.1,15l-89.2,-49.3l3.4,44.5l85.8,4.8z"/>
  <path opacity="0.5" id="svg_160" fill="rgb(193,160,206)" d="m1475.3,10.2l-3.4,-44.5l-199.7,-24.1l203.1,68.6z"/>
  <path opacity="0.5" id="svg_161" fill="rgb(212,226,239)" d="m645.6,-234.4l-196.2,88.2l211.7,120.9l-15.5,-209.1z"/>
  <path opacity="0.5" id="svg_162" fill="rgb(225,236,244)" d="m431.1,-57.1l-135.4,4.2l159.1,79.6l-23.7,-83.8z"/>
  <path opacity="0.5" id="svg_163" fill="rgb(231,240,247)" d="m48.3,-265.1l373.1,123.7l28,-4.8l-401.1,-118.9z"/>
  <path opacity="0.5" id="svg_164" fill="rgb(222,234,243)" d="m449.4,-146.2l-28,4.8l9.7,84.3l18.3,-89.1z"/>
  <path opacity="0.5" id="svg_165" fill="rgb(219,232,242)" d="m330.1,126.2l-140.9,-33.5l87.6,175.4l53.3,-141.9z"/>
  <path opacity="0.5" id="svg_166" fill="rgb(181,190,220)" d="m216,502l-4.4,110.7l111.7,-82.6l-107.3,-28.1z"/>
  <path opacity="0.5" id="svg_167" fill="rgb(178,164,207)" d="m296.5,628.6l-54.6,141.2l146.8,-84.7l-92.2,-56.5z"/>
  <path opacity="0.5" id="svg_168" fill="rgb(167,133,188)" d="m1595.8,391.3l9.2,-232.3l-236.2,83.5l227,148.8z"/>
  <path opacity="0.5" id="svg_169" fill="rgb(117,89,139)" d="m810.3,1126.7l84.3,-49.8l-89.5,-30l5.2,79.8z"/>
  <path opacity="0.5" id="svg_170" fill="rgb(116,82,138)" d="m894.6,1076.9l93.4,57.9l2.1,-170.3l-95.5,112.4z"/>
  <path opacity="0.5" id="svg_171" fill="rgb(121,97,143)" d="m572.9,1104.9l237.4,21.8l-5.2,-79.8l-232.2,58z"/>
  <path opacity="0.5" id="svg_172" fill="rgb(113,82,135)" d="m914.3,1132.8l73.7,2l-93.4,-57.9l19.7,55.9z"/>
  <path opacity="0.5" id="svg_173" fill="rgb(188,146,195)" d="m1605,159l-43.9,-144l-85.8,-4.8l129.7,148.8z"/>
  <path opacity="0.5" id="svg_174" fill="rgb(193,161,207)" d="m1471.9,-34.3l-37.8,-147.4l-161.9,123.3l199.7,24.1z"/>
  <path opacity="0.5" id="svg_175" fill="rgb(226,236,244)" d="m421.4,-141.4l-125.7,88.5l135.4,-4.2l-9.7,-84.3z"/>
  <path opacity="0.5" id="svg_176" fill="rgb(206,222,236)" d="m276.8,268.1l-236.4,46.7l231.8,10.8l4.6,-57.5z"/>
  <path opacity="0.5" id="svg_177" fill="rgb(135,57,150)" d="m1582.2,893.7l-86.1,-132.1l-131.2,111.1l217.3,21z"/>
  <path opacity="0.5" id="svg_178" fill="rgb(137,75,158)" d="m1496.1,761.6l66.2,23.2l-36.3,-209.5l-29.9,186.3z"/>
  <path opacity="0.5" id="svg_179" fill="rgb(139,87,160)" d="m1681.8,688.1l-22.5,-155.1l-133.3,42.3l155.8,112.8z"/>
  <path opacity="0.5" id="svg_180" fill="rgb(169,128,182)" d="m1595.8,391.3l63,-206.9l-53.8,-25.4l-9.2,232.3z"/>
  <path opacity="0.5" id="svg_181" fill="rgb(182,170,211)" d="m211.6,612.7l30.3,157.1l54.6,-141.2l-84.9,-15.9z"/>
  <path opacity="0.5" id="svg_182" fill="rgb(132,104,151)" d="m613.8,994.1l-40.9,110.8l232.2,-58l-191.3,-52.8z"/>
  <path opacity="0.5" id="svg_183" fill="rgb(163,121,176)" d="m1763.6,290.6l-104.8,-106.2l-63,206.9l167.8,-100.7z"/>
  <path opacity="0.5" id="svg_184" fill="rgb(186,141,190)" d="m1605,159l45,-99.5l-88.9,-44.5l43.9,144z"/>
  <path opacity="0.5" id="svg_185" fill="rgb(193,152,200)" d="m1622,-75.1l-187.9,-106.6l37.8,147.4l150.1,-40.8z"/>
  <path opacity="0.5" id="svg_186" fill="rgb(194,167,210)" d="m1229.4,-203.5l370.6,-16.1l-460.6,-16.4l90,32.5z"/>
  <path opacity="0.5" id="svg_187" fill="rgb(229,239,246)" d="m295.7,-52.9l-106.5,145.6l140.9,33.5l-34.4,-179.1z"/>
  <path opacity="0.5" id="svg_188" fill="rgb(185,193,221)" d="m216,502l-92.5,25.1l88.1,85.6l4.4,-110.7z"/>
  <path opacity="0.5" id="svg_189" fill="rgb(110,61,125)" d="m1103.6,1205.5l166.3,-114l-134.9,-106l-31.4,220z"/>
  <path opacity="0.5" id="svg_190" fill="rgb(133,44,140)" d="m1489,1006.9l93.2,-113.2l-217.3,-21l124.1,134.2z"/>
  <path opacity="0.5" id="svg_191" fill="rgb(159,118,172)" d="m445.6,1049.8l168.2,-55.7l-85.5,-161.1l-82.7,216.8z"/>
  <path opacity="0.5" id="svg_192" fill="rgb(197,216,233)" d="m40.4,314.8l175.6,187.2l56.2,-176.4l-231.8,-10.8z"/>
  <path opacity="0.5" id="svg_193" fill="rgb(185,172,211)" d="m211.6,612.7l-72.4,22.7l102.7,134.4l-30.3,-157.1z"/>
  <path opacity="0.5" id="svg_194" fill="rgb(168,124,177)" d="m325.4,957.6l120.2,92.2l82.7,-216.8l-202.9,124.6z"/>
  <path opacity="0.5" id="svg_195" fill="rgb(186,186,218)" d="m123.5,527.1l15.7,108.3l72.4,-22.7l-88.1,-85.6z"/>
  <path opacity="0.5" id="svg_196" fill="rgb(178,149,200)" d="m241.9,769.8l54.3,152.5l92.5,-237.2l-146.8,84.7z"/>
  <path opacity="0.5" id="svg_197" fill="rgb(182,142,192)" d="m154.8,927.9l141.4,-5.6l-54.3,-152.5l-87.1,158.1z"/>
  <path opacity="0.5" id="svg_198" fill="rgb(172,131,184)" d="m296.2,922.3l29.2,35.3l202.9,-124.6l-232.1,89.3z"/>
  <path opacity="0.5" id="svg_199" fill="rgb(181,136,186)" d="m1658.8,184.4l-8.8,-124.9l-45,99.5l53.8,25.4z"/>
  <path opacity="0.5" id="svg_200" fill="rgb(193,149,197)" d="m1561.1,15l60.9,-90.1l-150.1,40.8l89.2,49.3z"/>
  <path opacity="0.5" id="svg_201" fill="rgb(235,243,248)" d="m201.4,-54.9l-49,142.5l36.8,5.1l12.2,-147.6z"/>
  <path opacity="0.5" id="svg_202" fill="rgb(222,234,243)" d="m189.2,92.7l-80.7,60l168.3,115.4l-87.6,-175.4z"/>
  <path opacity="0.5" id="svg_203" fill="rgb(137,75,156)" d="m1562.3,784.8l119.5,-96.7l-155.8,-112.8l36.3,209.5z"/>
  <path opacity="0.5" id="svg_204" fill="rgb(150,112,171)" d="m1659.3,533l104.3,-242.4l-167.8,100.7l63.5,141.7z"/>
  <path opacity="0.5" id="svg_205" fill="rgb(135,57,145)" d="m1772.4,778.2l-90.6,-90.1l-119.5,96.7l210.1,-6.6z"/>
  <path opacity="0.5" id="svg_206" fill="rgb(112,80,134)" d="m914.3,1132.8l63.2,89.3l10.5,-87.3l-73.7,-2z"/>
  <path opacity="0.5" id="svg_207" fill="rgb(111,70,129)" d="m988,1134.8l115.6,70.7l31.4,-220l-147,149.3z"/>
  <path opacity="0.5" id="svg_208" fill="rgb(114,83,136)" d="m860.4,1309.1l117.1,-87l-63.2,-89.3l-53.9,176.3z"/>
  <path opacity="0.5" id="svg_209" fill="rgb(116,87,138)" d="m860.4,1309.1l53.9,-176.3l-104,-6.1l50.1,182.4z"/>
  <path opacity="0.5" id="svg_210" fill="rgb(111,74,131)" d="m977.5,1222.1l126.1,-16.6l-115.6,-70.7l-10.5,87.3z"/>
  <path opacity="0.5" id="svg_211" fill="rgb(230,240,246)" d="m152.4,87.6l-43.9,65.1l80.7,-60l-36.8,-5.1z"/>
  <path opacity="0.5" id="svg_212" fill="rgb(119,49,130)" d="m1489,1006.9l-203.1,-46.7l-16,131.3l219.1,-84.6z"/>
  <path opacity="0.5" id="svg_213" fill="rgb(134,51,142)" d="m1489,1006.9l-124.1,-134.2l-79,87.5l203.1,46.7z"/>
  <path opacity="0.5" id="svg_214" fill="rgb(236,244,249)" d="m295.7,-52.9l-94.3,-2l-12.2,147.6l106.5,-145.6z"/>
  <path opacity="0.5" id="svg_215" fill="rgb(233,242,247)" d="m152.4,87.6l-186.2,47.1l142.3,18l43.9,-65.1z"/>
  <path opacity="0.5" id="svg_216" fill="rgb(236,244,249)" d="m197.4,-134.1l4,79.2l94.3,2l-98.3,-81.2z"/>
  <path opacity="0.5" id="svg_217" fill="rgb(231,241,247)" d="m197.4,-134.1l98.3,81.2l125.7,-88.5l-224,7.3z"/>
  <path opacity="0.5" id="svg_218" fill="rgb(111,71,130)" d="m977.5,1222.1l129.5,-7.8l-3.4,-8.8l-126.1,16.6z"/>
  <path opacity="0.5" id="svg_219" fill="rgb(110,62,126)" d="m1103.6,1205.5l3.4,8.8l162.9,-122.8l-166.3,114z"/>
  <path opacity="0.5" id="svg_220" fill="rgb(109,26,112)" d="m1612.5,990.6l-123.5,16.3l63.7,164.3l59.8,-180.6z"/>
  <path opacity="0.5" id="svg_221" fill="rgb(131,66,144)" d="m1772.4,778.2l-34.8,-203.9l-55.8,113.8l90.6,90.1z"/>
  <path opacity="0.5" id="svg_222" fill="rgb(137,82,154)" d="m1681.8,688.1l55.8,-113.8l-78.3,-41.3l22.5,155.1z"/>
  <path opacity="0.5" id="svg_223" fill="rgb(178,132,180)" d="m1658.8,184.4l173.6,-94.1l-182.4,-30.8l8.8,124.9z"/>
  <path opacity="0.5" id="svg_224" fill="rgb(192,145,192)" d="m1650,59.5l-28,-134.6l-60.9,90.1l88.9,44.5z"/>
  <path opacity="0.5" id="svg_225" fill="rgb(138,105,159)" d="m1898.2,426.5l-134.6,-135.9l-104.3,242.4l238.9,-106.5z"/>
  <path opacity="0.5" id="svg_226" fill="rgb(192,142,189)" d="m1650,59.5l49.8,-177.6l-77.8,43l28,134.6z"/>
  <path opacity="0.5" id="svg_227" fill="rgb(136,108,149)" d="m445.6,1049.8l25,91.3l102.3,-36.2l-127.3,-55.1z"/>
  <path opacity="0.5" id="svg_228" fill="rgb(119,93,141)" d="m702.6,1327.1l157.8,-18l-50.1,-182.4l-107.7,200.4z"/>
  <path opacity="0.5" id="svg_229" fill="rgb(141,112,151)" d="m309.3,1206.4l161.3,-65.3l-25,-91.3l-136.3,156.6z"/>
  <path opacity="0.5" id="svg_230" fill="rgb(146,115,153)" d="m309.3,1206.4l136.3,-156.6l-193.4,116.1l57.1,40.5z"/>
  <path opacity="0.5" id="svg_231" fill="rgb(215,229,240)" d="m108.5,152.7l-68.1,162.1l236.4,-46.7l-168.3,-115.4z"/>
  <path opacity="0.5" id="svg_232" fill="rgb(190,167,209)" d="m29.1,733.5l40.1,85.6l70,-183.7l-110.1,98.1z"/>
  <path opacity="0.5" id="svg_233" fill="rgb(163,122,172)" d="m1763.6,290.6l3.3,-55.7l-108.1,-50.5l104.8,106.2z"/>
  <path opacity="0.5" id="svg_234" fill="rgb(236,245,249)" d="m48.3,-265.1l149.1,131l224,-7.3l-373.1,-123.7z"/>
  <path opacity="0.5" id="svg_235" fill="rgb(240,247,250)" d="m201.4,-54.9l-114.6,-17.8l65.6,160.3l49,-142.5z"/>
  <path opacity="0.5" id="svg_236" fill="rgb(215,229,240)" d="m-68.7,227.5l2,131.5l107.1,-44.2l-109.1,-87.3z"/>
  <path opacity="0.5" id="svg_237" fill="rgb(125,100,145)" d="m616.1,1294.6l194.2,-167.9l-237.4,-21.8l43.2,189.7z"/>
  <path opacity="0.5" id="svg_238" fill="rgb(110,67,128)" d="m977.5,1222.1l252.4,73.5l-122.9,-81.3l-129.5,7.8z"/>
  <path opacity="0.5" id="svg_239" fill="rgb(127,31,128)" d="m1489,1006.9l123.5,-16.3l-30.3,-96.9l-93.2,113.2z"/>
  <path opacity="0.5" id="svg_240" fill="rgb(133,41,138)" d="m1582.2,893.7l90.1,37.7l-110,-146.6l19.9,108.9z"/>
  <path opacity="0.5" id="svg_241" fill="rgb(107,41,117)" d="m1382.5,1203.9l106.5,-197l-219.1,84.6l112.6,112.4z"/>
  <path opacity="0.5" id="svg_242" fill="rgb(186,149,198)" d="m69.2,819.1l85.6,108.8l87.1,-158.1l-172.7,49.3z"/>
  <path opacity="0.5" id="svg_243" fill="rgb(177,131,180)" d="m296.2,922.3l-116.2,65.4l145.4,-30.1l-29.2,-35.3z"/>
  <path opacity="0.5" id="svg_244" fill="rgb(187,163,207)" d="m69.2,819.1l172.7,-49.3l-102.7,-134.4l-70,183.7z"/>
  <path opacity="0.5" id="svg_245" fill="rgb(193,149,197)" d="m1622,-75.1l-22,-144.5l-165.9,37.9l187.9,106.6z"/>
  <path opacity="0.5" id="svg_246" fill="rgb(193,159,206)" d="m1434.1,-181.7l165.9,-37.9l-370.6,16.1l204.7,21.8z"/>
  <path opacity="0.5" id="svg_247" fill="rgb(192,143,190)" d="m1699.8,-118.1l-99.8,-101.5l22,144.5l77.8,-43z"/>
  <path opacity="0.5" id="svg_248" fill="rgb(130,25,128)" d="m1612.5,990.6l39.3,-42.7l-69.6,-54.2l30.3,96.9z"/>
  <path opacity="0.5" id="svg_249" fill="rgb(116,10,112)" d="m1772.5,914.6l-100.2,16.8l94,156.2l6.2,-173z"/>
  <path opacity="0.5" id="svg_250" fill="rgb(130,27,129)" d="m1651.8,947.9l20.5,-16.5l-90.1,-37.7l69.6,54.2z"/>
  <path opacity="0.5" id="svg_251" fill="rgb(108,50,120)" d="m1229.9,1295.6l152.6,-91.7l-112.6,-112.4l-40,204.1z"/>
  <path opacity="0.5" id="svg_252" fill="rgb(109,58,124)" d="m1229.9,1295.6l40,-204.1l-162.9,122.8l122.9,81.3z"/>
  <path opacity="0.5" id="svg_253" fill="rgb(182,134,183)" d="m154.8,927.9l25.2,59.8l116.2,-65.4l-141.4,5.6z"/>
  <path opacity="0.5" id="svg_254" fill="rgb(192,175,214)" d="m29.1,733.5l110.1,-98.1l-167.7,35.4l57.6,62.7z"/>
  <path opacity="0.5" id="svg_255" fill="rgb(179,133,179)" d="m154.8,927.9l-53.4,76l78.6,-16.2l-25.2,-59.8z"/>
  <path opacity="0.5" id="svg_256" fill="rgb(190,186,218)" d="m-28.5,670.8l167.7,-35.4l-15.7,-108.3l-152,143.7z"/>
  <path opacity="0.5" id="svg_257" fill="rgb(186,138,182)" d="m1823.4,-7.3l-123.6,-110.8l-49.8,177.6l173.4,-66.8z"/>
  <path opacity="0.5" id="svg_258" fill="rgb(133,42,138)" d="m1672.3,931.4l100.1,-153.2l-210.1,6.6l110,146.6z"/>
  <path opacity="0.5" id="svg_259" fill="rgb(138,107,154)" d="m1898.2,426.5l-7.2,-147.6l-127.4,11.7l134.6,135.9z"/>
  <path opacity="0.5" id="svg_260" fill="rgb(158,121,163)" d="m1910.4,177.5l-78,-87.2l-65.5,144.6l143.5,-57.4z"/>
  <path opacity="0.5" id="svg_261" fill="rgb(134,106,148)" d="m530,1300.8l42.9,-195.9l-102.3,36.2l59.4,159.7z"/>
  <path opacity="0.5" id="svg_262" fill="rgb(131,104,147)" d="m530,1300.8l86.1,-6.2l-43.2,-189.7l-42.9,195.9z"/>
  <path opacity="0.5" id="svg_263" fill="rgb(239,247,250)" d="m197.4,-134.1l-110.6,61.4l114.6,17.8l-4,-79.2z"/>
  <path opacity="0.5" id="svg_264" fill="rgb(122,99,144)" d="m616.1,1294.6l86.5,32.5l107.7,-200.4l-194.2,167.9z"/>
  <path opacity="0.5" id="svg_265" fill="rgb(109,56,123)" d="m1563.8,1341.7l-333.9,-46.1l-369.5,13.5l703.4,32.6z"/>
  <path opacity="0.5" id="svg_266" fill="rgb(111,74,131)" d="m860.4,1309.1l369.5,-13.5l-252.4,-73.5l-117.1,87z"/>
  <path opacity="0.5" id="svg_267" fill="rgb(206,222,237)" d="m-66.7,359l20.1,105.8l87,-150l-107.1,44.2z"/>
  <path opacity="0.5" id="svg_268" fill="rgb(199,214,232)" d="m40.4,314.8l-87,150l170.1,62.3l-83.1,-212.3z"/>
  <path opacity="0.5" id="svg_269" fill="rgb(150,115,162)" d="m1891,278.9l-124.1,-44l-3.3,55.7l127.4,-11.7z"/>
  <path opacity="0.5" id="svg_270" fill="rgb(168,126,173)" d="m1766.9,234.9l65.5,-144.6l-173.6,94.1l108.1,50.5z"/>
  <path opacity="0.5" id="svg_271" fill="rgb(222,234,243)" d="m-68.7,227.5l109.1,87.3l68.1,-162.1l-177.2,74.8z"/>
  <path opacity="0.5" id="svg_272" fill="rgb(194,179,215)" d="m-28.9,677l0.4,-6.2l-99.6,-15.6l99.2,21.8z"/>
  <path opacity="0.5" id="svg_273" fill="rgb(193,197,224)" d="m-46.6,464.8l18.1,206l152,-143.7l-170.1,-62.3z"/>
  <path opacity="0.5" id="svg_274" fill="rgb(193,159,205)" d="m29.1,733.5l-77.7,107l117.8,-21.4l-40.1,-85.6z"/>
  <path opacity="0.5" id="svg_275" fill="rgb(160,123,164)" d="m252.2,1165.9l73.2,-208.3l-145.4,30.1l72.2,178.2z"/>
  <path opacity="0.5" id="svg_276" fill="rgb(239,247,250)" d="m86.8,-72.7l-120.6,207.4l186.2,-47.1l-65.6,-160.3z"/>
  <path opacity="0.5" id="svg_277" fill="rgb(194,170,211)" d="m-48.6,840.5l19.7,-163.5l-99.2,-21.8l79.5,185.3z"/>
  <path opacity="0.5" id="svg_278" fill="rgb(194,175,214)" d="m-28.5,670.8l-0.4,6.2l58,56.5l-57.6,-62.7z"/>
  <path opacity="0.5" id="svg_279" fill="rgb(138,110,150)" d="m352.8,1272.2l177.2,28.6l-59.4,-159.7l-117.8,131.1z"/>
  <path opacity="0.5" id="svg_280" fill="rgb(128,102,146)" d="m616.1,1294.6l-86.1,6.2l172.6,26.3l-86.5,-32.5z"/>
  <path opacity="0.5" id="svg_281" fill="rgb(132,92,153)" d="m1898.2,426.5l-238.9,106.5l78.3,41.3l160.6,-147.8z"/>
  <path opacity="0.5" id="svg_282" fill="rgb(121,85,143)" d="m1888.5,595.3l9.7,-168.8l-160.6,147.8l150.9,21z"/>
  <path opacity="0.5" id="svg_283" fill="rgb(231,240,247)" d="m-33.8,134.7l-34.9,92.8l177.2,-74.8l-142.3,-18z"/>
  <path opacity="0.5" id="svg_284" fill="rgb(118,11,114)" d="m1766.3,1087.6l-94,-156.2l-20.5,16.5l114.5,139.7z"/>
  <path opacity="0.5" id="svg_285" fill="rgb(106,32,112)" d="m1382.5,1203.9l170.2,-32.7l-63.7,-164.3l-106.5,197z"/>
  <path opacity="0.5" id="svg_286" fill="rgb(108,46,119)" d="m1229.9,1295.6l152.2,-23.5l0.4,-68.2l-152.6,91.7z"/>
  <path opacity="0.5" id="svg_287" fill="rgb(163,126,162)" d="m2024.8,8.8l-201.4,-16.1l9,97.6l192.4,-81.5z"/>
  <path opacity="0.5" id="svg_288" fill="rgb(177,133,176)" d="m1832.4,90.3l-9,-97.6l-173.4,66.8l182.4,30.8z"/>
  <path opacity="0.5" id="svg_289" fill="rgb(192,141,188)" d="m1699.8,-118.1l-9.5,-109.6l-90.3,8.1l99.8,101.5z"/>
  <path opacity="0.5" id="svg_290" fill="rgb(186,138,182)" d="m1776.9,-188.3l-86.6,-39.4l9.5,109.6l77.1,-70.2z"/>
  <path opacity="0.5" id="svg_291" fill="rgb(193,155,202)" d="m1600,-219.6l90.3,-8.1l-550.9,-8.3l460.6,16.4z"/>
  <path opacity="0.5" id="svg_292" fill="rgb(123,68,139)" d="m1772.4,778.2l116.1,-182.9l-150.9,-21l34.8,203.9z"/>
  <path opacity="0.5" id="svg_293" fill="rgb(125,30,126)" d="m1672.3,931.4l100.2,-16.8l-0.1,-136.4l-100.1,153.2z"/>
  <path opacity="0.5" id="svg_294" fill="rgb(110,65,127)" d="m1968.5,696.4l-7.2,-91.2l-72.8,-9.9l80,101.1z"/>
  <path opacity="0.5" id="svg_295" fill="rgb(116,11,112)" d="m1766.3,1087.6l-114.5,-139.7l-39.3,42.7l153.8,97z"/>
  <path opacity="0.5" id="svg_296" fill="rgb(106,35,115)" d="m1382.1,1272.1l170.6,-100.9l-170.2,32.7l-0.4,68.2z"/>
  <path opacity="0.5" id="svg_297" fill="rgb(150,117,157)" d="m252.2,1165.9l193.4,-116.1l-120.2,-92.2l-73.2,208.3z"/>
  <path opacity="0.5" id="svg_298" fill="rgb(187,141,189)" d="m101.4,1003.9l53.4,-76l-85.6,-108.8l32.2,184.8z"/>
  <path opacity="0.5" id="svg_299" fill="rgb(190,146,194)" d="m-48.6,840.5l150,163.4l-32.2,-184.8l-117.8,21.4z"/>
  <path opacity="0.5" id="svg_300" fill="rgb(160,124,162)" d="m101.4,1003.9l150.8,162l-72.2,-178.2l-78.6,16.2z"/>
  <path opacity="0.5" id="svg_301" fill="rgb(149,115,158)" d="m1891,278.9l19.4,-101.4l-143.5,57.4l124.1,44z"/>
  <path opacity="0.5" id="svg_302" fill="rgb(138,109,150)" d="m1971.3,324.8l-60.9,-147.3l-19.4,101.4l80.3,45.9z"/>
  <path opacity="0.5" id="svg_303" fill="rgb(148,116,154)" d="m252.3,1307.4l100.5,-35.2l-43.5,-65.8l-57,101z"/>
  <path opacity="0.5" id="svg_304" fill="rgb(143,113,152)" d="m309.3,1206.4l43.5,65.8l117.8,-131.1l-161.3,65.3z"/>
  <path opacity="0.5" id="svg_305" fill="rgb(181,135,177)" d="m1823.4,-7.3l-46.5,-181l-77.1,70.2l123.6,110.8z"/>
  <path opacity="0.5" id="svg_306" fill="rgb(172,131,169)" d="m1912.4,-132.9l-135.5,-55.4l46.5,181l89,-125.6z"/>
  <path opacity="0.5" id="svg_307" fill="rgb(246,251,253)" d="m18.5,-261.7l-62,213.9l130.3,-24.9l-68.3,-189z"/>
  <path opacity="0.5" id="svg_308" fill="rgb(246,252,253)" d="m86.8,-72.7l-130.3,24.9l9.7,182.5l120.6,-207.4z"/>
  <path opacity="0.5" id="svg_309" fill="rgb(231,241,247)" d="m-33.8,134.7l-104.8,18.2l69.9,74.6l34.9,-92.8z"/>
  <path opacity="0.5" id="svg_310" fill="rgb(194,166,209)" d="m-28.9,677l-19.7,163.5l77.7,-107l-58,-56.5z"/>
  <path opacity="0.5" id="svg_311" fill="rgb(194,190,221)" d="m-128.1,655.2l99.6,15.6l-18.1,-206l-81.5,190.4z"/>
  <path opacity="0.5" id="svg_312" fill="rgb(121,96,142)" d="m2027,506.3l-55.7,-181.5l-73.1,101.7l128.8,79.8z"/>
  <path opacity="0.5" id="svg_313" fill="rgb(129,103,146)" d="m1898.2,426.5l73.1,-101.7l-80.3,-45.9l7.2,147.6z"/>
  <path opacity="0.5" id="svg_314" fill="rgb(162,126,160)" d="m2024.8,8.8l-112.4,-141.7l-89,125.6l201.4,16.1z"/>
  <path opacity="0.5" id="svg_315" fill="rgb(200,213,232)" d="m-237.7,507l191.1,-42.2l-197.8,-81.9l6.7,124.1z"/>
  <path opacity="0.5" id="svg_316" fill="rgb(194,199,225)" d="m-237.7,507l109.6,148.2l81.5,-190.4l-191.1,42.2z"/>
  <path opacity="0.5" id="svg_317" fill="rgb(213,227,239)" d="m-244.4,382.9l177.7,-23.9l-2,-131.5l-175.7,155.4z"/>
  <path opacity="0.5" id="svg_318" fill="rgb(114,58,128)" d="m1968.5,696.4l-80,-101.1l-116.1,182.9l196.1,-81.8z"/>
  <path opacity="0.5" id="svg_319" fill="rgb(114,84,136)" d="m1888.5,595.3l138.5,-89l-128.8,-79.8l-9.7,168.8z"/>
  <path opacity="0.5" id="svg_320" fill="rgb(236,244,249)" d="m-192.7,101.3l54.1,51.6l104.8,-18.2l-158.9,-33.4z"/>
  <path opacity="0.5" id="svg_321" fill="rgb(242,248,251)" d="m197.4,-134.1l-149.1,-131l38.5,192.4l110.6,-61.4z"/>
  <path opacity="0.5" id="svg_322" fill="rgb(242,248,251)" d="m-43.5,-47.8l-149.2,149.1l158.9,33.4l-9.7,-182.5z"/>
  <path opacity="0.5" id="svg_323" fill="rgb(226,237,244)" d="m645.6,-234.4l-597.3,-30.7l401.1,118.9l196.2,-88.2z"/>
  <path opacity="0.5" id="svg_324" fill="rgb(210,225,238)" d="m1139.4,-236l-1091.1,-29.1l597.3,30.7l493.8,-1.6z"/>
  <path opacity="0.5" id="svg_325" fill="rgb(194,200,226)" d="m1690.3,-227.7l-1642,-37.4l1091.1,29.1l550.9,8.3z"/>
  <path opacity="0.5" id="svg_326" fill="rgb(116,26,117)" d="m1891.4,960.4l-119,-182.2l0.1,136.4l118.9,45.8z"/>
  <path opacity="0.5" id="svg_327" fill="rgb(108,39,117)" d="m1993.3,901.4l-24.8,-205l-196.1,81.8l220.9,123.2z"/>
  <path opacity="0.5" id="svg_328" fill="rgb(111,75,132)" d="m1961.3,605.2l65.7,-98.9l-138.5,89l72.8,9.9z"/>
  <path opacity="0.5" id="svg_329" fill="rgb(103,8,100)" d="m1687.2,1221.5l79.1,-133.9l-213.6,83.6l134.5,50.3z"/>
  <path opacity="0.5" id="svg_330" fill="rgb(103,12,101)" d="m1552.7,1171.2l213.6,-83.6l-153.8,-97l-59.8,180.6z"/>
  <path opacity="0.5" id="svg_331" fill="rgb(245,250,252)" d="m48.3,-265.1l-29.8,3.4l68.3,189l-38.5,-192.4z"/>
  <path opacity="0.5" id="svg_332" fill="rgb(113,82,135)" d="m2069.5,491.5l-42.5,14.8l109.2,66.6l-66.7,-81.4z"/>
  <path opacity="0.5" id="svg_333" fill="rgb(153,121,157)" d="m84.3,1296.3l168,11.1l-0.1,-141.5l-167.9,130.4z"/>
  <path opacity="0.5" id="svg_334" fill="rgb(150,118,155)" d="m252.2,1165.9l0.1,141.5l57,-101l-57.1,-40.5z"/>
  <path opacity="0.5" id="svg_335" fill="rgb(143,113,152)" d="m352.8,1272.2l-100.5,35.2l277.7,-6.6l-177.2,-28.6z"/>
  <path opacity="0.5" id="svg_336" fill="rgb(136,108,149)" d="m530,1300.8l-277.7,6.6l450.3,19.7l-172.6,-26.3z"/>
  <path opacity="0.5" id="svg_337" fill="rgb(156,123,158)" d="m30.3,1180.7l221.9,-14.8l-150.8,-162l-71.1,176.8z"/>
  <path opacity="0.5" id="svg_338" fill="rgb(106,7,102)" d="m1766.3,1087.6l125.1,-127.2l-118.9,-45.8l-6.2,173z"/>
  <path opacity="0.5" id="svg_339" fill="rgb(112,77,132)" d="m2136.2,572.9l-109.2,-66.6l-65.7,98.9l174.9,-32.3z"/>
  <path opacity="0.5" id="svg_340" fill="rgb(153,120,156)" d="m2024.8,8.8l-114.4,168.7l178.5,2.1l-64.1,-170.8z"/>
  <path opacity="0.5" id="svg_341" fill="rgb(155,121,157)" d="m2024.8,8.8l-192.4,81.5l78,87.2l114.4,-168.7z"/>
  <path opacity="0.5" id="svg_342" fill="rgb(171,131,168)" d="m1776.9,-188.3l291.8,13.7l-378.4,-53.1l86.6,39.4z"/>
  <path opacity="0.5" id="svg_343" fill="rgb(104,18,104)" d="m1563.8,1341.7l123.4,-120.2l-134.5,-50.3l11.1,170.5z"/>
  <path opacity="0.5" id="svg_344" fill="rgb(98,4,95)" d="m1766.3,1087.6l134.5,-118.3l-9.4,-8.9l-125.1,127.2z"/>
  <path opacity="0.5" id="svg_345" fill="rgb(247,252,253)" d="m-224.9,-100.5l32.2,201.8l149.2,-149.1l-181.4,-52.7z"/>
  <path opacity="0.5" id="svg_346" fill="rgb(203,220,236)" d="m-244.4,382.9l197.8,81.9l-20.1,-105.8l-177.7,23.9z"/>
  <path opacity="0.5" id="svg_347" fill="rgb(92,3,89)" d="m1993.3,901.4l-92.5,67.9l62.1,164.7l30.4,-232.6z"/>
  <path opacity="0.5" id="svg_348" fill="rgb(107,42,117)" d="m1993.3,901.4l56,-188.5l-80.8,-16.5l24.8,205z"/>
  <path opacity="0.5" id="svg_349" fill="rgb(105,29,111)" d="m1382.1,1272.1l181.7,69.6l-11.1,-170.5l-170.6,100.9z"/>
  <path opacity="0.5" id="svg_350" fill="rgb(107,40,117)" d="m1229.9,1295.6l333.9,46.1l-181.7,-69.6l-152.2,23.5z"/>
  <path opacity="0.5" id="svg_351" fill="rgb(111,73,131)" d="m702.6,1327.1l861.2,14.6l-703.4,-32.6l-157.8,18z"/>
  <path opacity="0.5" id="svg_352" fill="rgb(221,233,242)" d="m-244.4,382.9l175.7,-155.4l-69.9,-74.6l-105.8,230z"/>
  <path opacity="0.5" id="svg_353" fill="rgb(193,156,203)" d="m-209.2,786.2l30.2,49.1l130.4,5.2l-160.6,-54.3z"/>
  <path opacity="0.5" id="svg_354" fill="rgb(226,237,244)" d="m-192.7,101.3l-51.7,281.6l105.8,-230l-54.1,-51.6z"/>
  <path opacity="0.5" id="svg_355" fill="rgb(109,59,124)" d="m2049.3,712.9l-88,-107.7l7.2,91.2l80.8,16.5z"/>
  <path opacity="0.5" id="svg_356" fill="rgb(119,93,141)" d="m2027,506.3l42.5,-14.8l-98.2,-166.7l55.7,181.5z"/>
  <path opacity="0.5" id="svg_357" fill="rgb(194,165,208)" d="m-209.2,786.2l160.6,54.3l-79.5,-185.3l-81.1,131z"/>
  <path opacity="0.5" id="svg_358" fill="rgb(161,125,160)" d="m-53,1082.4l83.3,98.3l71.1,-176.8l-154.4,78.5z"/>
  <path opacity="0.5" id="svg_359" fill="rgb(169,130,167)" d="m-53,1082.4l154.4,-78.5l-191.6,48.8l37.2,29.7z"/>
  <path opacity="0.5" id="svg_360" fill="rgb(141,112,151)" d="m2088.9,179.6l-178.5,-2.1l60.9,147.3l117.6,-145.2z"/>
  <path opacity="0.5" id="svg_361" fill="rgb(187,138,183)" d="m-90.2,1052.7l191.6,-48.8l-150,-163.4l-41.6,212.2z"/>
  <path opacity="0.5" id="svg_362" fill="rgb(108,24,110)" d="m1993.3,901.4l-220.9,-123.2l119,182.2l101.9,-59z"/>
  <path opacity="0.5" id="svg_363" fill="rgb(194,182,217)" d="m-237.7,507l28.5,279.2l81.1,-131l-109.6,-148.2z"/>
  <path opacity="0.5" id="svg_364" fill="rgb(192,145,192)" d="m-179,835.3l88.8,217.4l41.6,-212.2l-130.4,-5.2z"/>
  <path opacity="0.5" id="svg_365" fill="rgb(163,127,161)" d="m-170.7,1106.2l80.5,-53.5l-140.2,15.3l59.7,38.2z"/>
  <path opacity="0.5" id="svg_366" fill="rgb(162,126,160)" d="m-170.7,1106.2l181.1,165.1l19.9,-90.6l-201,-74.5z"/>
  <path opacity="0.5" id="svg_367" fill="rgb(96,4,93)" d="m2056.8,906.5l-63.5,-5.1l-30.4,232.6l93.9,-227.5z"/>
  <path opacity="0.5" id="svg_368" fill="rgb(102,6,99)" d="m1900.8,969.3l92.5,-67.9l-101.9,59l9.4,8.9z"/>
  <path opacity="0.5" id="svg_369" fill="rgb(133,106,148)" d="m2133,402.7l-44.1,-223.1l-117.6,145.2l161.7,77.9z"/>
  <path opacity="0.5" id="svg_370" fill="rgb(162,126,160)" d="m2069.7,-107.3l-62.1,-14.7l17.2,130.8l44.9,-116.1z"/>
  <path opacity="0.5" id="svg_371" fill="rgb(162,126,160)" d="m2024.8,8.8l-17.2,-130.8l-95.2,-10.9l112.4,141.7z"/>
  <path opacity="0.5" id="svg_372" fill="rgb(162,126,160)" d="m1912.4,-132.9l156.3,-41.7l-291.8,-13.7l135.5,55.4z"/>
  <path opacity="0.5" id="svg_373" fill="rgb(160,125,159)" d="m10.4,1271.3l73.9,25l-54,-115.6l-19.9,90.6z"/>
  <path opacity="0.5" id="svg_374" fill="rgb(157,123,158)" d="m30.3,1180.7l54,115.6l167.9,-130.4l-221.9,14.8z"/>
  <path opacity="0.5" id="svg_375" fill="rgb(116,87,138)" d="m2136.2,572.9l-3.2,-170.2l-63.5,88.8l66.7,81.4z"/>
  <path opacity="0.5" id="svg_376" fill="rgb(122,98,143)" d="m2069.5,491.5l63.5,-88.8l-161.7,-77.9l98.2,166.7z"/>
  <path opacity="0.5" id="svg_377" fill="rgb(247,252,253)" d="m-183.2,-264.3l-41.7,163.8l181.4,52.7l-139.7,-216.5z"/>
  <path opacity="0.5" id="svg_378" fill="rgb(236,244,249)" d="m-192.7,101.3l-32.2,-201.8l-19.5,483.4l51.7,-281.6z"/>
  <path opacity="0.5" id="svg_379" fill="rgb(110,66,127)" d="m2049.3,712.9l86.9,-140l-174.9,32.3l88,107.7z"/>
  <path opacity="0.5" id="svg_380" fill="rgb(107,44,118)" d="m2143.7,995.7l-7.5,-422.8l-86.9,140l94.4,282.8z"/>
  <path opacity="0.5" id="svg_381" fill="rgb(141,112,151)" d="m2133,402.7l-13.5,-301.2l-30.6,78.1l44.1,223.1z"/>
  <path opacity="0.5" id="svg_382" fill="rgb(155,121,157)" d="m2088.9,179.6l30.6,-78.1l-94.7,-92.7l64.1,170.8z"/>
  <path opacity="0.5" id="svg_383" fill="rgb(162,126,160)" d="m-170.7,1106.2l201,74.5l-83.3,-98.3l-117.7,23.8z"/>
  <path opacity="0.5" id="svg_384" fill="rgb(85,1,82)" d="m1962.9,1134l-62.1,-164.7l-134.5,118.3l196.6,46.4z"/>
  <path opacity="0.5" id="svg_385" fill="rgb(105,30,111)" d="m1993.3,901.4l63.5,5.1l-7.5,-193.6l-56,188.5z"/>
  <path opacity="0.5" id="svg_386" fill="rgb(92,3,89)" d="m1885.1,1200l-118.8,-112.4l-79.1,133.9l197.9,-21.5z"/>
  <path opacity="0.5" id="svg_387" fill="rgb(162,126,160)" d="m2119.5,101.5l-49.8,-208.8l-44.9,116.1l94.7,92.7z"/>
  <path opacity="0.5" id="svg_388" fill="rgb(162,126,160)" d="m2007.6,-122l61.1,-52.6l-156.3,41.7l95.2,10.9z"/>
  <path opacity="0.5" id="svg_389" fill="rgb(88,2,85)" d="m1885.3,1281.8l-0.2,-81.8l-197.9,21.5l198.1,60.3z"/>
  <path opacity="0.5" id="svg_390" fill="rgb(247,252,253)" d="m48.3,-265.1l-231.5,0.8l201.7,2.6l29.8,-3.4z"/>
  <path opacity="0.5" id="svg_391" fill="rgb(247,252,253)" d="m18.5,-261.7l-201.7,-2.6l139.7,216.5l62,-213.9z"/>
  <path opacity="0.5" id="svg_392" fill="rgb(82,1,80)" d="m1885.1,1200l77.8,-66l-196.6,-46.4l118.8,112.4z"/>
  <path opacity="0.5" id="svg_393" fill="rgb(162,126,160)" d="m2119.5,101.5l-50.8,-276.1l1,67.3l49.8,208.8z"/>
  <path opacity="0.5" id="svg_394" fill="rgb(162,126,160)" d="m2069.7,-107.3l-1,-67.3l-61.1,52.6l62.1,14.7z"/>
  <path opacity="0.5" id="svg_395" fill="rgb(183,136,179)" d="m-230.4,1068l140.2,-15.3l-88.8,-217.4l-51.4,232.7z"/>
  <path opacity="0.5" id="svg_396" fill="rgb(162,126,160)" d="m-90.2,1052.7l-80.5,53.5l117.7,-23.8l-37.2,-29.7z"/>
  <path opacity="0.5" id="svg_397" fill="rgb(99,5,96)" d="m1563.8,1341.7l321.5,-59.9l-198.1,-60.3l-123.4,120.2z"/>
  <path opacity="0.5" id="svg_398" fill="rgb(77,0,75)" d="m1885.1,1200l36.4,112.7l41.4,-178.7l-77.8,66z"/>
  <path opacity="0.5" id="svg_399" fill="rgb(192,146,194)" d="m-209.2,786.2l-21.2,281.8l51.4,-232.7l-30.2,-49.1z"/>
  <path opacity="0.5" id="svg_400" fill="rgb(162,126,160)" d="m-170.7,1106.2l-66.4,234.8l247.5,-69.7l-181.1,-165.1z"/>
  <path opacity="0.5" id="svg_401" fill="rgb(193,161,206)" d="m-237.7,507l7.3,561l21.2,-281.8l-28.5,-279.2z"/>
  <path opacity="0.5" id="svg_402" fill="rgb(194,181,217)" d="m-244.4,382.9l14,685.1l-7.3,-561l-6.7,-124.1z"/>
  <path opacity="0.5" id="svg_403" fill="rgb(91,3,88)" d="m1563.8,1341.7l357.7,-29l-36.2,-30.9l-321.5,59.9z"/>
  <path opacity="0.5" id="svg_404" fill="rgb(79,0,77)" d="m1885.3,1281.8l36.2,30.9l-36.4,-112.7l0.2,81.8z"/>
  <path opacity="0.5" id="svg_405" fill="rgb(90,2,87)" d="m1962.9,1134l180.8,-138.3l-86.9,-89.2l-93.9,227.5z"/>
  <path opacity="0.5" id="svg_406" fill="rgb(77,0,75)" d="m2118.9,1128.3l24.8,-132.6l-180.8,138.3l156,-5.7z"/>
  <path opacity="0.5" id="svg_407" fill="rgb(105,24,107)" d="m2056.8,906.5l86.9,89.2l-94.4,-282.8l7.5,193.6z"/>
  <path opacity="0.5" id="svg_408" fill="rgb(77,0,75)" d="m2129.2,1242.4l-10.3,-114.1l-156,5.7l166.3,108.4z"/>
  <path opacity="0.5" id="svg_409" fill="rgb(77,0,75)" d="m1921.5,1312.7l207.7,-70.3l-166.3,-108.4l-41.4,178.7z"/>
  <path opacity="0.5" id="svg_410" fill="rgb(77,0,75)" d="m2118.9,1128.3l10.3,114.1l14.5,-246.7l-24.8,132.6z"/>
  <path opacity="0.5" id="svg_411" fill="rgb(192,142,189)" d="m-244.4,382.9l7.3,958.1l6.7,-273l-14,-685.1z"/>
  <path opacity="0.5" id="svg_412" fill="rgb(162,126,160)" d="m-230.4,1068l-6.7,273l66.4,-234.8l-59.7,-38.2z"/>
  <path opacity="0.5" id="svg_413" fill="rgb(162,126,160)" d="m10.4,1271.3l-247.5,69.7l321.4,-44.7l-73.9,-25z"/>
  <path opacity="0.5" id="svg_414" fill="rgb(161,125,159)" d="m84.3,1296.3l-321.4,44.7l489.4,-33.6l-168,-11.1z"/>
  <path opacity="0.5" id="svg_415" fill="rgb(152,119,156)" d="m252.3,1307.4l-489.4,33.6l939.7,-13.9l-450.3,-19.7z"/>
  <path opacity="0.5" id="svg_416" fill="rgb(125,100,144)" d="m702.6,1327.1l-939.7,13.9l1800.9,0.7l-861.2,-14.6z"/>
 </g>
</svg>